<svg width="66" height="16" viewBox="0 0 66 16" fill="none" xmlns="http://www.w3.org/2000/svg">
<path d="M1 7C0.447715 7 4.82823e-08 7.44772 0 8C-4.82823e-08 8.55228 0.447715 9 1 9L1 7ZM65.7071 8.70711C66.0976 8.31659 66.0976 7.68342 65.7071 7.2929L59.3431 0.928937C58.9526 0.538413 58.3195 0.538413 57.9289 0.928937C57.5384 1.31946 57.5384 1.95263 57.9289 2.34315L63.5858 8.00001L57.9289 13.6569C57.5384 14.0474 57.5384 14.6805 57.9289 15.0711C58.3195 15.4616 58.9526 15.4616 59.3431 15.0711L65.7071 8.70711ZM1 9L65 9.00001L65 7.00001L1 7L1 9Z" fill="#EEEEEE"/>
</svg>
