<svg width="32" height="32" viewBox="0 0 32 32" fill="none" xmlns="http://www.w3.org/2000/svg">
<path opacity="0.16" fill-rule="evenodd" clip-rule="evenodd" d="M2.44734 16C2.44734 23.4853 8.51534 29.5533 16.0006 29.5533C23.4859 29.5533 29.5539 23.4853 29.5539 16C29.5539 8.51473 23.4859 2.44673 16.0006 2.44673C8.51534 2.44673 2.44734 8.51473 2.44734 16ZM16.0006 0.533325C7.4586 0.533325 0.533936 7.45799 0.533936 16C0.533936 24.542 7.4586 31.4667 16.0006 31.4667C24.5426 31.4667 31.4673 24.542 31.4673 16C31.4673 7.45799 24.5426 0.533325 16.0006 0.533325Z" fill="#FF9900"/>
<path fill-rule="evenodd" clip-rule="evenodd" d="M0 16C0 7.16344 7.16344 0 16 0C24.8366 0 32 7.16344 32 16C32 24.8366 24.8366 32 16 32C7.16344 32 0 24.8366 0 16ZM16 1.26733C7.86337 1.26733 1.26733 7.86337 1.26733 16C1.26733 24.1366 7.86337 30.7327 16 30.7327C24.1366 30.7327 30.7327 24.1366 30.7327 16C30.7327 7.86337 24.1366 1.26733 16 1.26733Z" fill="#FF9900"/>
<path fill-rule="evenodd" clip-rule="evenodd" d="M15.9994 5.33331C16.2939 5.33331 16.5327 5.61061 16.5327 5.95267V14.314C16.5327 14.656 16.2939 14.9333 15.9994 14.9333C15.7048 14.9333 15.4661 14.656 15.4661 14.314V5.95267C15.4661 5.61061 15.7048 5.33331 15.9994 5.33331Z" fill="#FF9900"/>
<path fill-rule="evenodd" clip-rule="evenodd" d="M24.7996 16C24.7996 16.2946 24.5226 16.5333 24.1809 16.5333H17.6849C17.3432 16.5333 17.0662 16.2946 17.0662 16C17.0662 15.7055 17.3432 15.4667 17.6849 15.4667H24.1809C24.5226 15.4667 24.7996 15.7055 24.7996 16Z" fill="#FF9900"/>
<path fill-rule="evenodd" clip-rule="evenodd" d="M25.5213 25.5215C25.7688 25.274 26.17 25.274 26.4174 25.5215L27.3136 26.4176C27.561 26.6651 27.561 27.0663 27.3136 27.3137C27.0661 27.5612 26.6649 27.5612 26.4174 27.3137L25.5213 26.4176C25.2738 26.1702 25.2738 25.7689 25.5213 25.5215Z" fill="#FF9900"/>
<path fill-rule="evenodd" clip-rule="evenodd" d="M4.68684 4.68633C4.9343 4.43887 5.33551 4.43887 5.58297 4.68633L6.47911 5.58247C6.72657 5.82993 6.72657 6.23114 6.47911 6.4786C6.23165 6.72606 5.83043 6.72606 5.58297 6.4786L4.68684 5.58247C4.43938 5.33501 4.43938 4.93379 4.68684 4.68633Z" fill="#FF9900"/>
<path fill-rule="evenodd" clip-rule="evenodd" d="M25.5224 6.47857C25.2749 6.23111 25.2749 5.82989 25.5224 5.58243L26.4185 4.6863C26.666 4.43884 27.0672 4.43884 27.3147 4.6863C27.5621 4.93376 27.5621 5.33497 27.3147 5.58243L26.4185 6.47857C26.1711 6.72603 25.7699 6.72603 25.5224 6.47857Z" fill="#FF9900"/>
<path fill-rule="evenodd" clip-rule="evenodd" d="M4.68767 27.3137C4.44021 27.0663 4.44021 26.665 4.68767 26.4176L5.58381 25.5214C5.83127 25.274 6.23248 25.274 6.47995 25.5214C6.72741 25.7689 6.72741 26.1701 6.47995 26.4176L5.58381 27.3137C5.33635 27.5612 4.93514 27.5612 4.68767 27.3137Z" fill="#FF9900"/>
<path fill-rule="evenodd" clip-rule="evenodd" d="M15.9994 28.2667C16.2939 28.2667 16.5327 28.5452 16.5327 28.8889V31.3778C16.5327 31.7214 16.2939 32 15.9994 32C15.7048 32 15.4661 31.7214 15.4661 31.3778V28.8889C15.4661 28.5452 15.7048 28.2667 15.9994 28.2667Z" fill="#FF9900"/>
<path fill-rule="evenodd" clip-rule="evenodd" d="M15.9994 0C16.2939 0 16.5327 0.278578 16.5327 0.622222V3.11111C16.5327 3.45475 16.2939 3.73333 15.9994 3.73333C15.7048 3.73333 15.4661 3.45475 15.4661 3.11111V0.622222C15.4661 0.278578 15.7048 0 15.9994 0Z" fill="#FF9900"/>
<path fill-rule="evenodd" clip-rule="evenodd" d="M-2.33127e-08 16C-3.6188e-08 15.7054 0.278578 15.4667 0.622222 15.4667L3.11111 15.4667C3.45475 15.4667 3.73333 15.7054 3.73333 16C3.73333 16.2945 3.45475 16.5333 3.11111 16.5333L0.622222 16.5333C0.278578 16.5333 -1.04375e-08 16.2945 -2.33127e-08 16Z" fill="#FF9900"/>
<path fill-rule="evenodd" clip-rule="evenodd" d="M28.2666 16C28.2666 15.7054 28.5452 15.4667 28.8888 15.4667L31.3777 15.4667C31.7214 15.4667 31.9999 15.7054 31.9999 16C31.9999 16.2945 31.7214 16.5333 31.3777 16.5333L28.8888 16.5333C28.5452 16.5333 28.2666 16.2945 28.2666 16Z" fill="#FF9900"/>
<path fill-rule="evenodd" clip-rule="evenodd" d="M16.001 15.0857C15.4961 15.0857 15.0867 15.4951 15.0867 16C15.0867 16.505 15.4961 16.9143 16.001 16.9143C16.506 16.9143 16.9153 16.505 16.9153 16C16.9153 15.4951 16.506 15.0857 16.001 15.0857ZM13.8677 16C13.8677 14.8218 14.8228 13.8667 16.001 13.8667C17.1792 13.8667 18.1343 14.8218 18.1343 16C18.1343 17.1782 17.1792 18.1334 16.001 18.1334C14.8228 18.1334 13.8677 17.1782 13.8677 16Z" fill="#FF9900"/>
</svg>
