<svg width="83" height="80" viewBox="0 0 83 80" fill="none" xmlns="http://www.w3.org/2000/svg">
<path opacity="0.08" d="M1.29688 73.4791H6.48438V78.6958H1.29688V73.4791Z" fill="#FF9900"/>
<path opacity="0.08" d="M6.48438 73.4791H11.6719V78.6958H6.48438V73.4791Z" fill="#FF9900"/>
<path opacity="0.08" d="M11.6719 73.4791H16.8594V78.6958H11.6719V73.4791Z" fill="#FF9900"/>
<path opacity="0.08" d="M11.6719 64.35H16.8594V69.5666H11.6719V64.35Z" fill="#FF9900"/>
<path opacity="0.08" d="M6.48438 64.35H11.6719V69.5666H6.48438V64.35Z" fill="#FF9900"/>
<path opacity="0.08" d="M1.29688 64.35H6.48438V69.5666H1.29688V64.35Z" fill="#FF9900"/>
<path opacity="0.08" d="M1.29688 55.2208H6.48438V60.4374H1.29688V55.2208Z" fill="#FF9900"/>
<path opacity="0.08" d="M6.48438 55.2208H11.6719V60.4374H6.48438V55.2208Z" fill="#FF9900"/>
<path opacity="0.08" d="M11.6719 55.2208H16.8594V60.4374H11.6719V55.2208Z" fill="#FF9900"/>
<path opacity="0.08" d="M11.6719 46.0916H16.8594V51.3083H11.6719V46.0916Z" fill="#FF9900"/>
<path opacity="0.08" d="M6.48438 46.0916H11.6719V51.3083H6.48438V46.0916Z" fill="#FF9900"/>
<path opacity="0.08" d="M1.29688 46.0916H6.48438V51.3083H1.29688V46.0916Z" fill="#FF9900"/>
<path opacity="0.08" d="M12.9561 35.9059C11.8144 36.5841 10.4915 36.9624 9.07812 36.9624C8.17006 36.9624 7.28859 36.8057 6.48438 36.5058C3.46255 35.4366 1.29688 32.5411 1.29688 29.1374V34.354C1.29688 37.7577 3.46255 40.6533 6.48438 41.7225C7.28859 42.0211 8.17006 42.1791 9.07812 42.1791C10.4915 42.1791 11.8277 41.8008 12.9688 41.1226C15.2902 39.7662 16.8594 37.2477 16.8594 34.354V29.1374C16.8594 32.0323 15.2902 34.5623 12.9561 35.9059Z" fill="#FF9900"/>
<path opacity="0.4" d="M16.8594 29.1374C16.8594 32.0323 15.2902 34.5623 12.9561 35.9059C11.8144 36.5841 10.4915 36.9624 9.07812 36.9624C8.17006 36.9624 7.28859 36.8057 6.48438 36.5058C3.46255 35.4366 1.29688 32.5411 1.29688 29.1374C1.29688 24.8205 4.78539 21.3123 9.07812 21.3123C13.3709 21.3123 16.8594 24.8205 16.8594 29.1374Z" fill="#FF9900"/>
<path opacity="0.24" d="M79.1094 5.66229C80.5361 5.66229 81.7031 6.83591 81.7031 8.27063C81.7031 9.71808 80.5361 10.879 79.1094 10.879C77.6827 10.879 76.5156 9.71808 76.5156 8.27063C76.5156 6.83591 77.6827 5.66229 79.1094 5.66229Z" fill="#FF9900"/>
<path opacity="0.4" d="M64.8438 3.05393L58.7222 16.0956L58.3594 16.8783C56.2842 16.3695 54.1059 16.0956 51.875 16.0956C49.6441 16.0956 47.4658 16.3695 45.3906 16.8783L38.9062 3.05393C38.9062 3.05393 45.3906 -0.858584 51.875 3.05393C58.3594 6.96644 64.8438 3.05393 64.8438 3.05393Z" fill="#FF9900"/>
<path opacity="0.4" d="M51.875 35.6582C59.0338 35.6582 64.8438 41.5009 64.8438 48.6999C64.8438 55.899 59.0338 61.7416 51.875 61.7416C44.7162 61.7416 38.9062 55.899 38.9062 48.6999C38.9062 41.5009 44.7162 35.6582 51.875 35.6582Z" fill="#FF9900"/>
<path d="M77.8125 80H25.9375C25.22 80 24.6406 79.4167 24.6406 78.6958C24.6406 77.9743 25.22 77.3917 25.9375 77.3917H77.8125C78.53 77.3917 79.1094 77.9743 79.1094 78.6958C79.1094 79.4167 78.53 80 77.8125 80Z" fill="#FF9900"/>
<path d="M25.9375 80C23.0765 80 20.75 77.6604 20.75 74.7833C20.75 71.9063 23.0765 69.5667 25.9375 69.5667C26.655 69.5667 27.2344 70.1493 27.2344 70.8708C27.2344 71.5917 26.655 72.175 25.9375 72.175C24.507 72.175 23.3438 73.3448 23.3438 74.7833C23.3438 76.2219 24.507 77.3917 25.9375 77.3917C26.655 77.3917 27.2344 77.9743 27.2344 78.6958C27.2344 79.4167 26.655 80 25.9375 80Z" fill="#FF9900"/>
<path d="M77.8125 80C77.095 80 76.5156 79.4167 76.5156 78.6958C76.5156 77.9743 77.095 77.3917 77.8125 77.3917C79.243 77.3917 80.4062 76.2219 80.4062 74.7833C80.4062 73.3448 79.243 72.175 77.8125 72.175C77.095 72.175 76.5156 71.5917 76.5156 70.8708C76.5156 70.1493 77.095 69.5667 77.8125 69.5667C80.6735 69.5667 83 71.9063 83 74.7833C83 77.6604 80.6735 80 77.8125 80Z" fill="#FF9900"/>
<path d="M24.6406 72.4081C23.9232 72.4081 23.3438 71.8254 23.3438 71.1039V43.4832C23.3438 42.7617 23.9232 42.1791 24.6406 42.1791C25.3581 42.1791 25.9375 42.7617 25.9375 43.4832V71.1039C25.9375 71.8241 25.3581 72.4081 24.6406 72.4081Z" fill="#FF9900"/>
<path d="M79.1094 72.4081C78.3919 72.4081 77.8125 71.8254 77.8125 71.1039V43.4832C77.8125 42.7617 78.3919 42.1791 79.1094 42.1791C79.8268 42.1791 80.4062 42.7617 80.4062 43.4832V71.1039C80.4062 71.8241 79.8268 72.4081 79.1094 72.4081Z" fill="#FF9900"/>
<path d="M79.1094 44.7874C78.3919 44.7874 77.8125 44.2041 77.8125 43.4832C77.8125 29.1004 66.1767 17.3998 51.875 17.3998C37.5733 17.3998 25.9375 29.1004 25.9375 43.4832C25.9375 44.2041 25.3581 44.7874 24.6406 44.7874C23.9232 44.7874 23.3438 44.2041 23.3438 43.4832C23.3438 27.6619 36.1428 14.7915 51.875 14.7915C67.6072 14.7915 80.4062 27.6619 80.4062 43.4832C80.4062 44.2041 79.8268 44.7874 79.1094 44.7874Z" fill="#FF9900"/>
<path d="M16.8594 80H1.29688C0.579414 80 0 79.4167 0 78.6958V73.4792C0 72.7577 0.579414 72.175 1.29688 72.175H16.8594C17.5768 72.175 18.1562 72.7577 18.1562 73.4792V78.6958C18.1562 79.4167 17.5768 80 16.8594 80ZM2.59375 77.3917H15.5625V74.7833H2.59375V77.3917Z" fill="#FF9900"/>
<path d="M6.48438 80C5.76691 80 5.1875 79.4167 5.1875 78.6958V73.4792C5.1875 72.7577 5.76691 72.175 6.48438 72.175C7.20184 72.175 7.78125 72.7577 7.78125 73.4792V78.6958C7.78125 79.4167 7.20184 80 6.48438 80Z" fill="#FF9900"/>
<path d="M11.6719 80C10.9544 80 10.375 79.4167 10.375 78.6958V73.4792C10.375 72.7577 10.9544 72.175 11.6719 72.175C12.3893 72.175 12.9688 72.7577 12.9688 73.4792V78.6958C12.9688 79.4167 12.3893 80 11.6719 80Z" fill="#FF9900"/>
<path d="M16.8594 70.8708H1.29688C0.579414 70.8708 0 70.2875 0 69.5666V64.35C0 63.6285 0.579414 63.0458 1.29688 63.0458H16.8594C17.5768 63.0458 18.1562 63.6285 18.1562 64.35V69.5666C18.1562 70.2875 17.5768 70.8708 16.8594 70.8708ZM2.59375 68.2625H15.5625V65.6541H2.59375V68.2625Z" fill="#FF9900"/>
<path d="M6.48438 70.8708C5.76691 70.8708 5.1875 70.2875 5.1875 69.5666V64.35C5.1875 63.6285 5.76691 63.0458 6.48438 63.0458C7.20184 63.0458 7.78125 63.6285 7.78125 64.35V69.5666C7.78125 70.2875 7.20184 70.8708 6.48438 70.8708Z" fill="#FF9900"/>
<path d="M11.6719 70.8708C10.9544 70.8708 10.375 70.2875 10.375 69.5666V64.35C10.375 63.6285 10.9544 63.0458 11.6719 63.0458C12.3893 63.0458 12.9688 63.6285 12.9688 64.35V69.5666C12.9688 70.2875 12.3893 70.8708 11.6719 70.8708Z" fill="#FF9900"/>
<path d="M16.8594 61.7416H1.29688C0.579414 61.7416 0 61.1583 0 60.4374V55.2208C0 54.4993 0.579414 53.9166 1.29688 53.9166H16.8594C17.5768 53.9166 18.1562 54.4993 18.1562 55.2208V60.4374C18.1562 61.1583 17.5768 61.7416 16.8594 61.7416ZM2.59375 59.1333H15.5625V56.5249H2.59375V59.1333Z" fill="#FF9900"/>
<path d="M6.48438 61.7416C5.76691 61.7416 5.1875 61.1583 5.1875 60.4374V55.2208C5.1875 54.4993 5.76691 53.9166 6.48438 53.9166C7.20184 53.9166 7.78125 54.4993 7.78125 55.2208V60.4374C7.78125 61.1583 7.20184 61.7416 6.48438 61.7416Z" fill="#FF9900"/>
<path d="M11.6719 61.7416C10.9544 61.7416 10.375 61.1583 10.375 60.4374V55.2208C10.375 54.4993 10.9544 53.9166 11.6719 53.9166C12.3893 53.9166 12.9688 54.4993 12.9688 55.2208V60.4374C12.9688 61.1583 12.3893 61.7416 11.6719 61.7416Z" fill="#FF9900"/>
<path d="M16.8594 52.6124H1.29688C0.579414 52.6124 0 52.0291 0 51.3083V46.0916C0 45.3701 0.579414 44.7874 1.29688 44.7874H16.8594C17.5768 44.7874 18.1562 45.3701 18.1562 46.0916V51.3083C18.1562 52.0291 17.5768 52.6124 16.8594 52.6124ZM2.59375 50.0041H15.5625V47.3957H2.59375V50.0041Z" fill="#FF9900"/>
<path d="M6.48438 52.6124C5.76691 52.6124 5.1875 52.0291 5.1875 51.3083V46.0916C5.1875 45.3701 5.76691 44.7874 6.48438 44.7874C7.20184 44.7874 7.78125 45.3701 7.78125 46.0916V51.3083C7.78125 52.0291 7.20184 52.6124 6.48438 52.6124Z" fill="#FF9900"/>
<path d="M11.6719 52.6124C10.9544 52.6124 10.375 52.0291 10.375 51.3083V46.0916C10.375 45.3701 10.9544 44.7874 11.6719 44.7874C12.3893 44.7874 12.9688 45.3701 12.9688 46.0916V51.3083C12.9688 52.0291 12.3893 52.6124 11.6719 52.6124Z" fill="#FF9900"/>
<path d="M9.07812 38.2666C4.07363 38.2666 0 34.17 0 29.1374C0 24.1047 4.07363 20.0082 9.07812 20.0082C14.0826 20.0082 18.1562 24.1047 18.1562 29.1374C18.1562 34.17 14.0826 38.2666 9.07812 38.2666ZM9.07812 22.6165C5.50285 22.6165 2.59375 25.5413 2.59375 29.1374C2.59375 32.7327 5.50285 35.6582 9.07812 35.6582C12.6534 35.6582 15.5625 32.7327 15.5625 29.1374C15.5625 25.5413 12.6534 22.6165 9.07812 22.6165Z" fill="#FF9900"/>
<path d="M9.07812 43.4832C4.07363 43.4832 0 39.3867 0 34.354C0 33.6325 0.579414 33.0499 1.29688 33.0499C2.01434 33.0499 2.59375 33.6325 2.59375 34.354C2.59375 37.9494 5.50285 40.8749 9.07812 40.8749C12.6534 40.8749 15.5625 37.9494 15.5625 34.354C15.5625 33.6325 16.1419 33.0499 16.8594 33.0499C17.5768 33.0499 18.1562 33.6325 18.1562 34.354C18.1562 39.3867 14.0826 43.4832 9.07812 43.4832Z" fill="#FF9900"/>
<path d="M6.48438 43.0356C5.76691 43.0356 5.1875 42.4529 5.1875 41.7314V36.5147C5.1875 35.7939 5.76691 35.2105 6.48438 35.2105C7.20184 35.2105 7.78125 35.7939 7.78125 36.5147V41.7314C7.78125 42.4529 7.20184 43.0356 6.48438 43.0356Z" fill="#FF9900"/>
<path d="M11.6719 43.0356C10.9544 43.0356 10.375 42.4529 10.375 41.7314V36.5147C10.375 35.7939 10.9544 35.2105 11.6719 35.2105C12.3893 35.2105 12.9688 35.7939 12.9688 36.5147V41.7314C12.9688 42.4529 12.3893 43.0356 11.6719 43.0356Z" fill="#FF9900"/>
<path d="M16.8594 35.6582C16.1419 35.6582 15.5625 35.0749 15.5625 34.354V29.1374C15.5625 28.4159 16.1419 27.8332 16.8594 27.8332C17.5768 27.8332 18.1562 28.4159 18.1562 29.1374V34.354C18.1562 35.0749 17.5768 35.6582 16.8594 35.6582Z" fill="#FF9900"/>
<path d="M1.29688 35.6582C0.579414 35.6582 0 35.0749 0 34.354V29.1374C0 28.4159 0.579414 27.8332 1.29688 27.8332C2.01434 27.8332 2.59375 28.4159 2.59375 29.1374V34.354C2.59375 35.0749 2.01434 35.6582 1.29688 35.6582Z" fill="#FF9900"/>
<path d="M9.07812 33.0499C8.36066 33.0499 7.78125 32.4666 7.78125 31.7457V26.529C7.78125 25.8075 8.36066 25.2249 9.07812 25.2249C9.79559 25.2249 10.375 25.8075 10.375 26.529V31.7457C10.375 32.4666 9.79559 33.0499 9.07812 33.0499Z" fill="#FF9900"/>
<path d="M45.3921 18.1812C44.9057 18.1812 44.4403 17.9042 44.2187 17.4336L37.7343 3.61049C37.4291 2.95841 37.7071 2.18151 38.3542 1.87457C39.0027 1.56445 39.774 1.84719 40.0798 2.498L46.5642 16.3211C46.8694 16.9732 46.5914 17.7507 45.9443 18.057C45.7657 18.1404 45.5776 18.1812 45.3921 18.1812Z" fill="#FF9900"/>
<path d="M58.3581 18.1812C58.1725 18.1812 57.9845 18.1417 57.8059 18.0557C57.1587 17.7494 56.8807 16.9719 57.186 16.3198L63.6703 2.49673C63.9762 1.84592 64.7475 1.56318 65.3959 1.87331C66.0431 2.18024 66.3211 2.95714 66.0159 3.60923L59.5315 17.4323C59.3098 17.9042 58.8444 18.1812 58.3581 18.1812Z" fill="#FF9900"/>
<path d="M58.1231 6.10804C56.0043 6.10804 53.6125 5.62407 51.2069 4.1728C45.4969 0.72324 39.8098 4.03334 39.5692 4.17534C38.9505 4.54469 38.1577 4.33837 37.7936 3.7213C37.4276 3.10361 37.6251 2.30506 38.2381 1.93635C38.53 1.75995 45.4697 -2.33086 52.5417 1.93635C58.2529 5.3859 63.94 2.07581 64.1794 1.9338C64.7981 1.567 65.5922 1.77205 65.955 2.3872C66.321 3.00554 66.1234 3.80345 65.5105 4.1728C65.3186 4.28742 62.2303 6.10804 58.1231 6.10804Z" fill="#FF9900"/>
<path d="M70.6794 17.3998H58.7251C58.0076 17.3998 57.4282 16.8165 57.4282 16.0957C57.4282 15.3742 58.0076 14.7915 58.7251 14.7915H70.6794C71.3969 14.7915 71.9763 15.3742 71.9763 16.0957C71.9763 16.8165 71.3969 17.3998 70.6794 17.3998Z" fill="#FF9900"/>
<path d="M70.6797 17.3998C69.9622 17.3998 69.3828 16.8165 69.3828 16.0956C69.3828 15.3742 69.9622 14.7915 70.6797 14.7915C71.0362 14.7915 71.3281 14.4979 71.3281 14.1394C71.3281 13.7809 71.0362 13.4873 70.6797 13.4873C69.9622 13.4873 69.3828 12.904 69.3828 12.1831C69.3828 11.4616 69.9622 10.879 70.6797 10.879C72.468 10.879 73.9219 12.3411 73.9219 14.1394C73.9219 15.9377 72.468 17.3998 70.6797 17.3998Z" fill="#FF9900"/>
<path d="M69.3828 13.4873C67.5945 13.4873 66.1406 12.0252 66.1406 10.2269C66.1406 8.42856 67.5945 6.96646 69.3828 6.96646C70.1003 6.96646 70.6797 7.54914 70.6797 8.27063C70.6797 8.99149 70.1003 9.5748 69.3828 9.5748C69.0263 9.5748 68.7344 9.86837 68.7344 10.2269C68.7344 10.5854 69.0263 10.879 69.3828 10.879C70.1003 10.879 70.6797 11.4616 70.6797 12.1831C70.6797 12.904 70.1003 13.4873 69.3828 13.4873Z" fill="#FF9900"/>
<path d="M70.6797 13.4873H69.3828C68.6654 13.4873 68.0859 12.904 68.0859 12.1831C68.0859 11.4616 68.6654 10.879 69.3828 10.879H70.6797C71.3971 10.879 71.9766 11.4616 71.9766 12.1831C71.9766 12.904 71.3971 13.4873 70.6797 13.4873Z" fill="#FF9900"/>
<path d="M76.5156 9.5748H69.3828C68.6654 9.5748 68.0859 8.99149 68.0859 8.27063C68.0859 7.54914 68.6654 6.96646 69.3828 6.96646H76.5156C77.2331 6.96646 77.8125 7.54914 77.8125 8.27063C77.8125 8.99149 77.2331 9.5748 76.5156 9.5748Z" fill="#FF9900"/>
<path d="M79.1094 12.1831C76.9646 12.1831 75.2188 10.4275 75.2188 8.27064C75.2188 6.11315 76.9646 4.35812 79.1094 4.35812C81.2542 4.35812 83 6.11315 83 8.27064C83 10.4275 81.2542 12.1831 79.1094 12.1831ZM79.1094 6.96646C78.3938 6.96646 77.8125 7.55041 77.8125 8.27064C77.8125 8.99022 78.3938 9.57481 79.1094 9.57481C79.8249 9.57481 80.4062 8.99022 80.4062 8.27064C80.4062 7.55041 79.8249 6.96646 79.1094 6.96646Z" fill="#FF9900"/>
<path d="M51.875 63.0458C44.0095 63.0458 37.6094 56.6096 37.6094 48.6999C37.6094 40.7902 44.0095 34.354 51.875 34.354C59.7405 34.354 66.1406 40.7902 66.1406 48.6999C66.1406 56.6096 59.7405 63.0458 51.875 63.0458ZM51.875 36.9624C45.4388 36.9624 40.2031 42.2275 40.2031 48.6999C40.2031 55.1724 45.4388 60.4374 51.875 60.4374C58.3112 60.4374 63.5469 55.1724 63.5469 48.6999C63.5469 42.2275 58.3112 36.9624 51.875 36.9624Z" fill="#FF9900"/>
<path d="M51.875 53.9166C51.1575 53.9166 50.5781 53.3333 50.5781 52.6124V44.7874C50.5781 44.0659 51.1575 43.4832 51.875 43.4832C52.5925 43.4832 53.1719 44.0659 53.1719 44.7874V52.6124C53.1719 53.3333 52.5925 53.9166 51.875 53.9166Z" fill="#FF9900"/>
</svg>
