<svg width="14" height="18" viewBox="0 0 14 18" fill="none" xmlns="http://www.w3.org/2000/svg">
<path d="M4.02637 1.14283L4.52957 2.007L4.02637 1.14283ZM3.11211 1.6752L2.6089 0.811028L3.11211 1.6752ZM1.56645 7.49306L0.698591 7.98986L1.56645 7.49306ZM5.78926 14.8698L4.92139 15.3666L5.78926 14.8698ZM11.5577 16.4287L11.0545 15.5645L11.5577 16.4287ZM12.472 15.8963L12.9752 16.7605L12.9752 16.7605L12.472 15.8963ZM12.8584 14.4419L13.7262 13.9451L12.8584 14.4419ZM11.2748 11.6756L10.407 12.1724L11.2748 11.6756ZM5.46848 1.53255L4.60062 2.02935L5.46848 1.53255ZM7.05203 4.29883L7.9199 3.80202L7.05203 4.29883ZM6.66562 5.75329L6.16242 4.88913L6.66562 5.75329ZM4.83709 6.81804L4.33389 5.95387C3.85912 6.23033 3.69629 6.83804 3.96923 7.31484L4.83709 6.81804ZM9.83272 11.2859L10.3359 12.15L9.83272 11.2859ZM8.0042 12.3506L7.13633 12.8474C7.26873 13.0787 7.48797 13.2476 7.74538 13.3165C8.0028 13.3855 8.2771 13.3489 8.5074 13.2148L8.0042 12.3506ZM3.52317 0.278657L2.6089 0.811028L3.61531 2.53937L4.52957 2.007L3.52317 0.278657ZM0.698591 7.98986L4.92139 15.3666L6.65712 14.373L2.43432 6.99625L0.698591 7.98986ZM12.0609 17.2929L12.9752 16.7605L11.9688 15.0322L11.0545 15.5645L12.0609 17.2929ZM13.7262 13.9451L12.1427 11.1788L10.407 12.1724L11.9905 14.9387L13.7262 13.9451ZM4.60062 2.02935L6.18417 4.79564L7.9199 3.80202L6.33635 1.03574L4.60062 2.02935ZM6.16242 4.88913L4.33389 5.95387L5.3403 7.68221L7.16882 6.61746L6.16242 4.88913ZM9.32952 10.4217L7.50099 11.4864L8.5074 13.2148L10.3359 12.15L9.32952 10.4217ZM8.87206 11.8538L5.70496 6.32123L3.96923 7.31484L7.13633 12.8474L8.87206 11.8538ZM6.18417 4.79564C6.19371 4.81229 6.19625 4.83035 6.19103 4.85001C6.18583 4.86958 6.17552 4.8815 6.16242 4.88913L7.16882 6.61746C8.15197 6.04498 8.48239 4.78463 7.9199 3.80202L6.18417 4.79564ZM12.1427 11.1788C11.5774 10.1912 10.3177 9.84626 9.32952 10.4217L10.3359 12.15C10.3576 12.1374 10.3892 12.1414 10.407 12.1724L12.1427 11.1788ZM12.9752 16.7605C13.9583 16.188 14.2887 14.9277 13.7262 13.9451L11.9905 14.9387C12.0001 14.9553 12.0026 14.9734 11.9974 14.993C11.9922 15.0126 11.9819 15.0245 11.9688 15.0322L12.9752 16.7605ZM4.92139 15.3666C6.36128 17.8819 9.55791 18.7504 12.0609 17.2929L11.0545 15.5645C9.51804 16.4592 7.54942 15.9318 6.65712 14.373L4.92139 15.3666ZM2.6089 0.811028C0.11096 2.26557 -0.738472 5.47948 0.698591 7.98986L2.43432 6.99625C1.53919 5.43257 2.07378 3.43699 3.61531 2.53937L2.6089 0.811028ZM4.52957 2.007C4.55123 1.99438 4.58289 1.99838 4.60062 2.02935L6.33635 1.03574C5.77103 0.0482048 4.51137 -0.29677 3.52317 0.278657L4.52957 2.007Z" fill="black"/>
</svg>
