<svg width="12" height="17" viewBox="0 0 12 17" fill="none" xmlns="http://www.w3.org/2000/svg">
<path d="M7.52342 1L8.02568 0.135283C7.79556 0.00162184 7.52166 -0.0348028 7.2646 0.0340732C7.00755 0.102949 6.78855 0.271444 6.65609 0.502257L7.52342 1ZM11 3.01933L11.8673 3.51707C12.1412 3.03983 11.9781 2.43098 11.5023 2.15461L11 3.01933ZM4.47658 14.3865L4.92196 15.2818C5.09878 15.1939 5.2456 15.0555 5.34391 14.8842L4.47658 14.3865ZM1 12.3671L0.132676 11.8694C0.0349154 12.0398 -0.0105165 12.2351 0.00204843 12.4311L1 12.3671ZM1.23289 16L0.234935 16.064C0.256357 16.3981 0.443605 16.6994 0.733758 16.8665C1.02391 17.0337 1.37846 17.0445 1.67826 16.8953L1.23289 16ZM7.02116 1.86472L10.4977 3.88405L11.5023 2.15461L8.02568 0.135283L7.02116 1.86472ZM10.1327 2.52159L3.60926 13.8887L5.34391 14.8842L11.8673 3.51707L10.1327 2.52159ZM1.86732 12.8649L8.39074 1.49774L6.65609 0.502257L0.132676 11.8694L1.86732 12.8649ZM4.03121 13.4911L0.787513 15.1047L1.67826 16.8953L4.92196 15.2818L4.03121 13.4911ZM2.23084 15.936L1.99795 12.3032L0.00204843 12.4311L0.234935 16.064L2.23084 15.936ZM5.01395 5.3623L8.49053 7.38163L9.49505 5.6522L6.01847 3.63287L5.01395 5.3623Z" fill="black"/>
</svg>
