<svg width="16" height="18" viewBox="0 0 16 18" fill="none" xmlns="http://www.w3.org/2000/svg">
<path d="M13 17V18C13.5523 18 14 17.5523 14 17H13ZM3 17H2C2 17.5523 2.44772 18 3 18V17ZM1 3C0.447715 3 0 3.44772 0 4C0 4.55228 0.447715 5 1 5V3ZM15 5C15.5523 5 16 4.55228 16 4C16 3.44772 15.5523 3 15 3V5ZM6.5 1V0C5.94772 0 5.5 0.447715 5.5 1L6.5 1ZM9.5 1H10.5C10.5 0.447715 10.0523 0 9.5 0V1ZM5.5 13C5.5 13.5523 5.94772 14 6.5 14C7.05228 14 7.5 13.5523 7.5 13H5.5ZM7.5 8C7.5 7.44772 7.05228 7 6.5 7C5.94772 7 5.5 7.44772 5.5 8H7.5ZM8.5 13C8.5 13.5523 8.94772 14 9.5 14C10.0523 14 10.5 13.5523 10.5 13H8.5ZM10.5 8C10.5 7.44772 10.0523 7 9.5 7C8.94772 7 8.5 7.44772 8.5 8H10.5ZM12 4V17H14V4H12ZM13 16H3V18H13V16ZM4 17V4H2V17H4ZM1 5H3V3H1V5ZM3 5H6.5V3H3V5ZM6.5 5H9.5V3H6.5V5ZM9.5 5H13V3H9.5V5ZM13 5H15V3H13V5ZM6.5 2H9.5V0H6.5V2ZM8.5 1V4H10.5V1H8.5ZM7.5 4V1H5.5V4H7.5ZM7.5 13V8H5.5V13H7.5ZM9.5 13C10.5 13 10.5 13 10.5 13C10.5 12.9999 10.5 12.9999 10.5 12.9999C10.5 12.9998 10.5 12.9998 10.5 12.9997C10.5 12.9996 10.5 12.9995 10.5 12.9994C10.5 12.9994 10.5 12.9992 10.5 12.9991C10.5 12.999 10.5 12.9989 10.5 12.9988C10.5 12.9986 10.5 12.9985 10.5 12.9983C10.5 12.9981 10.5 12.998 10.5 12.9978C10.5 12.9976 10.5 12.9974 10.5 12.9972C10.5 12.997 10.5 12.9968 10.5 12.9965C10.5 12.9963 10.5 12.9961 10.5 12.9958C10.5 12.9956 10.5 12.9953 10.5 12.995C10.5 12.9948 10.5 12.9945 10.5 12.9942C10.5 12.9939 10.5 12.9936 10.5 12.9932C10.5 12.9929 10.5 12.9926 10.5 12.9923C10.5 12.9919 10.5 12.9916 10.5 12.9912C10.5 12.9908 10.5 12.9905 10.5 12.9901C10.5 12.9897 10.5 12.9893 10.5 12.9889C10.5 12.9885 10.5 12.9881 10.5 12.9876C10.5 12.9872 10.5 12.9867 10.5 12.9863C10.5 12.9858 10.5 12.9854 10.5 12.9849C10.5 12.9844 10.5 12.9839 10.5 12.9834C10.5 12.983 10.5 12.9824 10.5 12.9819C10.5 12.9814 10.5 12.9809 10.5 12.9803C10.5 12.9798 10.5 12.9792 10.5 12.9787C10.5 12.9781 10.5 12.9776 10.5 12.977C10.5 12.9764 10.5 12.9758 10.5 12.9752C10.5 12.9746 10.5 12.974 10.5 12.9733C10.5 12.9727 10.5 12.9721 10.5 12.9714C10.5 12.9708 10.5 12.9701 10.5 12.9694C10.5 12.9688 10.5 12.9681 10.5 12.9674C10.5 12.9667 10.5 12.966 10.5 12.9653C10.5 12.9646 10.5 12.9639 10.5 12.9631C10.5 12.9624 10.5 12.9617 10.5 12.9609C10.5 12.9601 10.5 12.9594 10.5 12.9586C10.5 12.9578 10.5 12.957 10.5 12.9562C10.5 12.9554 10.5 12.9546 10.5 12.9538C10.5 12.953 10.5 12.9522 10.5 12.9513C10.5 12.9505 10.5 12.9496 10.5 12.9488C10.5 12.9479 10.5 12.9471 10.5 12.9462C10.5 12.9453 10.5 12.9444 10.5 12.9435C10.5 12.9426 10.5 12.9417 10.5 12.9408C10.5 12.9398 10.5 12.9389 10.5 12.938C10.5 12.937 10.5 12.9361 10.5 12.9351C10.5 12.9341 10.5 12.9332 10.5 12.9322C10.5 12.9312 10.5 12.9302 10.5 12.9292C10.5 12.9282 10.5 12.9272 10.5 12.9262C10.5 12.9251 10.5 12.9241 10.5 12.9231C10.5 12.922 10.5 12.921 10.5 12.9199C10.5 12.9188 10.5 12.9178 10.5 12.9167C10.5 12.9156 10.5 12.9145 10.5 12.9134C10.5 12.9123 10.5 12.9112 10.5 12.91C10.5 12.9089 10.5 12.9078 10.5 12.9066C10.5 12.9055 10.5 12.9043 10.5 12.9032C10.5 12.902 10.5 12.9008 10.5 12.8996C10.5 12.8985 10.5 12.8973 10.5 12.8961C10.5 12.8948 10.5 12.8936 10.5 12.8924C10.5 12.8912 10.5 12.8899 10.5 12.8887C10.5 12.8875 10.5 12.8862 10.5 12.8849C10.5 12.8837 10.5 12.8824 10.5 12.8811C10.5 12.8798 10.5 12.8785 10.5 12.8772C10.5 12.8759 10.5 12.8746 10.5 12.8733C10.5 12.872 10.5 12.8706 10.5 12.8693C10.5 12.868 10.5 12.8666 10.5 12.8652C10.5 12.8639 10.5 12.8625 10.5 12.8611C10.5 12.8597 10.5 12.8584 10.5 12.857C10.5 12.8556 10.5 12.8541 10.5 12.8527C10.5 12.8513 10.5 12.8499 10.5 12.8484C10.5 12.847 10.5 12.8456 10.5 12.8441C10.5 12.8426 10.5 12.8412 10.5 12.8397C10.5 12.8382 10.5 12.8367 10.5 12.8352C10.5 12.8337 10.5 12.8322 10.5 12.8307C10.5 12.8292 10.5 12.8277 10.5 12.8262C10.5 12.8246 10.5 12.8231 10.5 12.8215C10.5 12.82 10.5 12.8184 10.5 12.8169C10.5 12.8153 10.5 12.8137 10.5 12.8121C10.5 12.8105 10.5 12.8089 10.5 12.8073C10.5 12.8057 10.5 12.8041 10.5 12.8025C10.5 12.8008 10.5 12.7992 10.5 12.7976C10.5 12.7959 10.5 12.7943 10.5 12.7926C10.5 12.7909 10.5 12.7893 10.5 12.7876C10.5 12.7859 10.5 12.7842 10.5 12.7825C10.5 12.7808 10.5 12.7791 10.5 12.7774C10.5 12.7757 10.5 12.774 10.5 12.7722C10.5 12.7705 10.5 12.7687 10.5 12.767C10.5 12.7652 10.5 12.7635 10.5 12.7617C10.5 12.7599 10.5 12.7581 10.5 12.7564C10.5 12.7546 10.5 12.7528 10.5 12.751C10.5 12.7492 10.5 12.7473 10.5 12.7455C10.5 12.7437 10.5 12.7419 10.5 12.74C10.5 12.7382 10.5 12.7363 10.5 12.7345C10.5 12.7326 10.5 12.7307 10.5 12.7289C10.5 12.727 10.5 12.7251 10.5 12.7232C10.5 12.7213 10.5 12.7194 10.5 12.7175C10.5 12.7156 10.5 12.7136 10.5 12.7117C10.5 12.7098 10.5 12.7078 10.5 12.7059C10.5 12.704 10.5 12.702 10.5 12.7C10.5 12.6981 10.5 12.6961 10.5 12.6941C10.5 12.6921 10.5 12.6901 10.5 12.6881C10.5 12.6861 10.5 12.6841 10.5 12.6821C10.5 12.6801 10.5 12.6781 10.5 12.676C10.5 12.674 10.5 12.672 10.5 12.6699C10.5 12.6679 10.5 12.6658 10.5 12.6637C10.5 12.6617 10.5 12.6596 10.5 12.6575C10.5 12.6554 10.5 12.6533 10.5 12.6512C10.5 12.6491 10.5 12.647 10.5 12.6449C10.5 12.6428 10.5 12.6407 10.5 12.6385C10.5 12.6364 10.5 12.6343 10.5 12.6321C10.5 12.6299 10.5 12.6278 10.5 12.6256C10.5 12.6235 10.5 12.6213 10.5 12.6191C10.5 12.6169 10.5 12.6147 10.5 12.6125C10.5 12.6103 10.5 12.6081 10.5 12.6059C10.5 12.6037 10.5 12.6015 10.5 12.5992C10.5 12.597 10.5 12.5947 10.5 12.5925C10.5 12.5902 10.5 12.588 10.5 12.5857C10.5 12.5835 10.5 12.5812 10.5 12.5789C10.5 12.5766 10.5 12.5743 10.5 12.572C10.5 12.5697 10.5 12.5674 10.5 12.5651C10.5 12.5628 10.5 12.5605 10.5 12.5581C10.5 12.5558 10.5 12.5535 10.5 12.5511C10.5 12.5488 10.5 12.5464 10.5 12.5441C10.5 12.5417 10.5 12.5393 10.5 12.537C10.5 12.5346 10.5 12.5322 10.5 12.5298C10.5 12.5274 10.5 12.525 10.5 12.5226C10.5 12.5202 10.5 12.5178 10.5 12.5154C10.5 12.5129 10.5 12.5105 10.5 12.5081C10.5 12.5056 10.5 12.5032 10.5 12.5007C10.5 12.4983 10.5 12.4958 10.5 12.4933C10.5 12.4909 10.5 12.4884 10.5 12.4859C10.5 12.4834 10.5 12.4809 10.5 12.4784C10.5 12.4759 10.5 12.4734 10.5 12.4709C10.5 12.4684 10.5 12.4659 10.5 12.4633C10.5 12.4608 10.5 12.4583 10.5 12.4557C10.5 12.4532 10.5 12.4506 10.5 12.448C10.5 12.4455 10.5 12.4429 10.5 12.4403C10.5 12.4378 10.5 12.4352 10.5 12.4326C10.5 12.43 10.5 12.4274 10.5 12.4248C10.5 12.4222 10.5 12.4196 10.5 12.417C10.5 12.4143 10.5 12.4117 10.5 12.4091C10.5 12.4064 10.5 12.4038 10.5 12.4011C10.5 12.3985 10.5 12.3958 10.5 12.3932C10.5 12.3905 10.5 12.3878 10.5 12.3852C10.5 12.3825 10.5 12.3798 10.5 12.3771C10.5 12.3744 10.5 12.3717 10.5 12.369C10.5 12.3663 10.5 12.3636 10.5 12.3608C10.5 12.3581 10.5 12.3554 10.5 12.3527C10.5 12.3499 10.5 12.3472 10.5 12.3444C10.5 12.3417 10.5 12.3389 10.5 12.3362C10.5 12.3334 10.5 12.3306 10.5 12.3278C10.5 12.3251 10.5 12.3223 10.5 12.3195C10.5 12.3167 10.5 12.3139 10.5 12.3111C10.5 12.3083 10.5 12.3055 10.5 12.3026C10.5 12.2998 10.5 12.297 10.5 12.2942C10.5 12.2913 10.5 12.2885 10.5 12.2856C10.5 12.2828 10.5 12.2799 10.5 12.2771C10.5 12.2742 10.5 12.2713 10.5 12.2685C10.5 12.2656 10.5 12.2627 10.5 12.2598C10.5 12.2569 10.5 12.254 10.5 12.2511C10.5 12.2482 10.5 12.2453 10.5 12.2424C10.5 12.2395 10.5 12.2366 10.5 12.2336C10.5 12.2307 10.5 12.2278 10.5 12.2248C10.5 12.2219 10.5 12.2189 10.5 12.216C10.5 12.213 10.5 12.21 10.5 12.2071C10.5 12.2041 10.5 12.2011 10.5 12.1981C10.5 12.1952 10.5 12.1922 10.5 12.1892C10.5 12.1862 10.5 12.1832 10.5 12.1802C10.5 12.1772 10.5 12.1741 10.5 12.1711C10.5 12.1681 10.5 12.1651 10.5 12.162C10.5 12.159 10.5 12.156 10.5 12.1529C10.5 12.1499 10.5 12.1468 10.5 12.1437C10.5 12.1407 10.5 12.1376 10.5 12.1345C10.5 12.1315 10.5 12.1284 10.5 12.1253C10.5 12.1222 10.5 12.1191 10.5 12.116C10.5 12.1129 10.5 12.1098 10.5 12.1067C10.5 12.1036 10.5 12.1005 10.5 12.0974C10.5 12.0942 10.5 12.0911 10.5 12.088C10.5 12.0848 10.5 12.0817 10.5 12.0786C10.5 12.0754 10.5 12.0722 10.5 12.0691C10.5 12.0659 10.5 12.0628 10.5 12.0596C10.5 12.0564 10.5 12.0532 10.5 12.05C10.5 12.0469 10.5 12.0437 10.5 12.0405C10.5 12.0373 10.5 12.0341 10.5 12.0309C10.5 12.0277 10.5 12.0244 10.5 12.0212C10.5 12.018 10.5 12.0148 10.5 12.0115C10.5 12.0083 10.5 12.0051 10.5 12.0018C10.5 11.9986 10.5 11.9953 10.5 11.9921C10.5 11.9888 10.5 11.9856 10.5 11.9823C10.5 11.979 10.5 11.9757 10.5 11.9725C10.5 11.9692 10.5 11.9659 10.5 11.9626C10.5 11.9593 10.5 11.956 10.5 11.9527C10.5 11.9494 10.5 11.9461 10.5 11.9428C10.5 11.9395 10.5 11.9361 10.5 11.9328C10.5 11.9295 10.5 11.9262 10.5 11.9228C10.5 11.9195 10.5 11.9161 10.5 11.9128C10.5 11.9094 10.5 11.9061 10.5 11.9027C10.5 11.8994 10.5 11.896 10.5 11.8926C10.5 11.8893 10.5 11.8859 10.5 11.8825C10.5 11.8791 10.5 11.8757 10.5 11.8723C10.5 11.8689 10.5 11.8655 10.5 11.8621C10.5 11.8587 10.5 11.8553 10.5 11.8519C10.5 11.8485 10.5 11.8451 10.5 11.8416C10.5 11.8382 10.5 11.8348 10.5 11.8314C10.5 11.8279 10.5 11.8245 10.5 11.821C10.5 11.8176 10.5 11.8141 10.5 11.8107C10.5 11.8072 10.5 11.8037 10.5 11.8003C10.5 11.7968 10.5 11.7933 10.5 11.7899C10.5 11.7864 10.5 11.7829 10.5 11.7794C10.5 11.7759 10.5 11.7724 10.5 11.7689C10.5 11.7654 10.5 11.7619 10.5 11.7584C10.5 11.7549 10.5 11.7514 10.5 11.7478C10.5 11.7443 10.5 11.7408 10.5 11.7373C10.5 11.7337 10.5 11.7302 10.5 11.7267C10.5 11.7231 10.5 11.7196 10.5 11.716C10.5 11.7125 10.5 11.7089 10.5 11.7053C10.5 11.7018 10.5 11.6982 10.5 11.6946C10.5 11.6911 10.5 11.6875 10.5 11.6839C10.5 11.6803 10.5 11.6767 10.5 11.6731C10.5 11.6696 10.5 11.666 10.5 11.6624C10.5 11.6588 10.5 11.6551 10.5 11.6515C10.5 11.6479 10.5 11.6443 10.5 11.6407C10.5 11.6371 10.5 11.6334 10.5 11.6298C10.5 11.6262 10.5 11.6225 10.5 11.6189C10.5 11.6153 10.5 11.6116 10.5 11.608C10.5 11.6043 10.5 11.6007 10.5 11.597C10.5 11.5933 10.5 11.5897 10.5 11.586C10.5 11.5823 10.5 11.5787 10.5 11.575C10.5 11.5713 10.5 11.5676 10.5 11.5639C10.5 11.5603 10.5 11.5566 10.5 11.5529C10.5 11.5492 10.5 11.5455 10.5 11.5418C10.5 11.5381 10.5 11.5343 10.5 11.5306C10.5 11.5269 10.5 11.5232 10.5 11.5195C10.5 11.5157 10.5 11.512 10.5 11.5083C10.5 11.5046 10.5 11.5008 10.5 11.4971C10.5 11.4933 10.5 11.4896 10.5 11.4858C10.5 11.4821 10.5 11.4783 10.5 11.4746C10.5 11.4708 10.5 11.467 10.5 11.4633C10.5 11.4595 10.5 11.4557 10.5 11.452C10.5 11.4482 10.5 11.4444 10.5 11.4406C10.5 11.4368 10.5 11.433 10.5 11.4293C10.5 11.4255 10.5 11.4217 10.5 11.4179C10.5 11.4141 10.5 11.4102 10.5 11.4064C10.5 11.4026 10.5 11.3988 10.5 11.395C10.5 11.3912 10.5 11.3874 10.5 11.3835C10.5 11.3797 10.5 11.3759 10.5 11.372C10.5 11.3682 10.5 11.3644 10.5 11.3605C10.5 11.3567 10.5 11.3528 10.5 11.349C10.5 11.3451 10.5 11.3413 10.5 11.3374C10.5 11.3335 10.5 11.3297 10.5 11.3258C10.5 11.3219 10.5 11.3181 10.5 11.3142C10.5 11.3103 10.5 11.3064 10.5 11.3026C10.5 11.2987 10.5 11.2948 10.5 11.2909C10.5 11.287 10.5 11.2831 10.5 11.2792C10.5 11.2753 10.5 11.2714 10.5 11.2675C10.5 11.2636 10.5 11.2597 10.5 11.2558C10.5 11.2519 10.5 11.2479 10.5 11.244C10.5 11.2401 10.5 11.2362 10.5 11.2322C10.5 11.2283 10.5 11.2244 10.5 11.2204C10.5 11.2165 10.5 11.2126 10.5 11.2086C10.5 11.2047 10.5 11.2007 10.5 11.1968C10.5 11.1928 10.5 11.1889 10.5 11.1849C10.5 11.1809 10.5 11.177 10.5 11.173C10.5 11.1691 10.5 11.1651 10.5 11.1611C10.5 11.1571 10.5 11.1532 10.5 11.1492C10.5 11.1452 10.5 11.1412 10.5 11.1372C10.5 11.1332 10.5 11.1293 10.5 11.1253C10.5 11.1213 10.5 11.1173 10.5 11.1133C10.5 11.1093 10.5 11.1053 10.5 11.1013C10.5 11.0972 10.5 11.0932 10.5 11.0892C10.5 11.0852 10.5 11.0812 10.5 11.0772C10.5 11.0731 10.5 11.0691 10.5 11.0651C10.5 11.0611 10.5 11.057 10.5 11.053C10.5 11.049 10.5 11.0449 10.5 11.0409C10.5 11.0368 10.5 11.0328 10.5 11.0288C10.5 11.0247 10.5 11.0207 10.5 11.0166C10.5 11.0126 10.5 11.0085 10.5 11.0044C10.5 11.0004 10.5 10.9963 10.5 10.9922C10.5 10.9882 10.5 10.9841 10.5 10.98C10.5 10.976 10.5 10.9719 10.5 10.9678C10.5 10.9637 10.5 10.9597 10.5 10.9556C10.5 10.9515 10.5 10.9474 10.5 10.9433C10.5 10.9392 10.5 10.9351 10.5 10.931C10.5 10.9269 10.5 10.9228 10.5 10.9187C10.5 10.9146 10.5 10.9105 10.5 10.9064C10.5 10.9023 10.5 10.8982 10.5 10.8941C10.5 10.89 10.5 10.8859 10.5 10.8817C10.5 10.8776 10.5 10.8735 10.5 10.8694C10.5 10.8652 10.5 10.8611 10.5 10.857C10.5 10.8529 10.5 10.8487 10.5 10.8446C10.5 10.8404 10.5 10.8363 10.5 10.8322C10.5 10.828 10.5 10.8239 10.5 10.8197C10.5 10.8156 10.5 10.8114 10.5 10.8073C10.5 10.8031 10.5 10.799 10.5 10.7948C10.5 10.7907 10.5 10.7865 10.5 10.7823C10.5 10.7782 10.5 10.774 10.5 10.7698C10.5 10.7657 10.5 10.7615 10.5 10.7573C10.5 10.7532 10.5 10.749 10.5 10.7448C10.5 10.7406 10.5 10.7364 10.5 10.7323C10.5 10.7281 10.5 10.7239 10.5 10.7197C10.5 10.7155 10.5 10.7113 10.5 10.7071C10.5 10.7029 10.5 10.6987 10.5 10.6946C10.5 10.6904 10.5 10.6862 10.5 10.682C10.5 10.6778 10.5 10.6735 10.5 10.6693C10.5 10.6651 10.5 10.6609 10.5 10.6567C10.5 10.6525 10.5 10.6483 10.5 10.6441C10.5 10.6399 10.5 10.6356 10.5 10.6314C10.5 10.6272 10.5 10.623 10.5 10.6188C10.5 10.6145 10.5 10.6103 10.5 10.6061C10.5 10.6018 10.5 10.5976 10.5 10.5934C10.5 10.5891 10.5 10.5849 10.5 10.5807C10.5 10.5764 10.5 10.5722 10.5 10.568C10.5 10.5637 10.5 10.5595 10.5 10.5552C10.5 10.551 10.5 10.5467 10.5 10.5425C10.5 10.5382 10.5 10.534 10.5 10.5297C10.5 10.5255 10.5 10.5212 10.5 10.517C10.5 10.5127 10.5 10.5084 10.5 10.5042C10.5 10.4999 10.5 10.4957 10.5 10.4914C10.5 10.4871 10.5 10.4829 10.5 10.4786C10.5 10.4743 10.5 10.47 10.5 10.4658C10.5 10.4615 10.5 10.4572 10.5 10.453C10.5 10.4487 10.5 10.4444 10.5 10.4401C10.5 10.4358 10.5 10.4316 10.5 10.4273C10.5 10.423 10.5 10.4187 10.5 10.4144C10.5 10.4101 10.5 10.4058 10.5 10.4016C10.5 10.3973 10.5 10.393 10.5 10.3887C10.5 10.3844 10.5 10.3801 10.5 10.3758C10.5 10.3715 10.5 10.3672 10.5 10.3629C10.5 10.3586 10.5 10.3543 10.5 10.35C10.5 10.3457 10.5 10.3414 10.5 10.3371C10.5 10.3328 10.5 10.3285 10.5 10.3242C10.5 10.3199 10.5 10.3155 10.5 10.3112C10.5 10.3069 10.5 10.3026 10.5 10.2983C10.5 10.294 10.5 10.2897 10.5 10.2853C10.5 10.281 10.5 10.2767 10.5 10.2724C10.5 10.2681 10.5 10.2637 10.5 10.2594C10.5 10.2551 10.5 10.2508 10.5 10.2465C10.5 10.2421 10.5 10.2378 10.5 10.2335C10.5 10.2291 10.5 10.2248 10.5 10.2205C10.5 10.2162 10.5 10.2118 10.5 10.2075C10.5 10.2032 10.5 10.1988 10.5 10.1945C10.5 10.1902 10.5 10.1858 10.5 10.1815C10.5 10.1771 10.5 10.1728 10.5 10.1685C10.5 10.1641 10.5 10.1598 10.5 10.1554C10.5 10.1511 10.5 10.1468 10.5 10.1424C10.5 10.1381 10.5 10.1337 10.5 10.1294C10.5 10.125 10.5 10.1207 10.5 10.1163C10.5 10.112 10.5 10.1076 10.5 10.1033C10.5 10.0989 10.5 10.0946 10.5 10.0902C10.5 10.0859 10.5 10.0815 10.5 10.0772C10.5 10.0728 10.5 10.0685 10.5 10.0641C10.5 10.0598 10.5 10.0554 10.5 10.0511C10.5 10.0467 10.5 10.0423 10.5 10.038C10.5 10.0336 10.5 10.0293 10.5 10.0249C10.5 10.0205 10.5 10.0162 10.5 10.0118C10.5 10.0075 10.5 10.0031 10.5 9.99874C10.5 9.99437 10.5 9.99001 10.5 9.98564C10.5 9.98128 10.5 9.97692 10.5 9.97255C10.5 9.96818 10.5 9.96382 10.5 9.95945C10.5 9.95508 10.5 9.95072 10.5 9.94635C10.5 9.94198 10.5 9.93761 10.5 9.93324C10.5 9.92887 10.5 9.9245 10.5 9.92013C10.5 9.91576 10.5 9.91139 10.5 9.90702C10.5 9.90265 10.5 9.89828 10.5 9.89391C10.5 9.88953 10.5 9.88516 10.5 9.88079C10.5 9.87641 10.5 9.87204 10.5 9.86767C10.5 9.86329 10.5 9.85892 10.5 9.85454C10.5 9.85017 10.5 9.84579 10.5 9.84142C10.5 9.83704 10.5 9.83267 10.5 9.82829C10.5 9.82392 10.5 9.81954 10.5 9.81516C10.5 9.81079 10.5 9.80641 10.5 9.80203C10.5 9.79766 10.5 9.79328 10.5 9.7889C10.5 9.78452 10.5 9.78015 10.5 9.77577C10.5 9.77139 10.5 9.76701 10.5 9.76264C10.5 9.75826 10.5 9.75388 10.5 9.7495C10.5 9.74512 10.5 9.74074 10.5 9.73636C10.5 9.73199 10.5 9.72761 10.5 9.72323C10.5 9.71885 10.5 9.71447 10.5 9.71009C10.5 9.70571 10.5 9.70133 10.5 9.69696C10.5 9.69258 10.5 9.6882 10.5 9.68382C10.5 9.67944 10.5 9.67506 10.5 9.67068C10.5 9.6663 10.5 9.66193 10.5 9.65755C10.5 9.65317 10.5 9.64879 10.5 9.64441C10.5 9.64003 10.5 9.63566 10.5 9.63128C10.5 9.6269 10.5 9.62252 10.5 9.61814C10.5 9.61377 10.5 9.60939 10.5 9.60501C10.5 9.60063 10.5 9.59626 10.5 9.59188C10.5 9.5875 10.5 9.58313 10.5 9.57875C10.5 9.57438 10.5 9.57 10.5 9.56562C10.5 9.56125 10.5 9.55687 10.5 9.5525C10.5 9.54812 10.5 9.54375 10.5 9.53938C10.5 9.535 10.5 9.53063 10.5 9.52625C10.5 9.52188 10.5 9.51751 10.5 9.51313C10.5 9.50876 10.5 9.50439 10.5 9.50002C10.5 9.49565 10.5 9.49128 10.5 9.48691C10.5 9.48254 10.5 9.47816 10.5 9.47379C10.5 9.46943 10.5 9.46506 10.5 9.46069C10.5 9.45632 10.5 9.45195 10.5 9.44758C10.5 9.44322 10.5 9.43885 10.5 9.43448C10.5 9.43012 10.5 9.42575 10.5 9.42139C10.5 9.41702 10.5 9.41266 10.5 9.4083C10.5 9.40393 10.5 9.39957 10.5 9.39521C10.5 9.39085 10.5 9.38648 10.5 9.38212C10.5 9.37776 10.5 9.3734 10.5 9.36904C10.5 9.36469 10.5 9.36033 10.5 9.35597C10.5 9.35161 10.5 9.34725 10.5 9.3429C10.5 9.33854 10.5 9.33419 10.5 9.32983C10.5 9.32548 10.5 9.32113 10.5 9.31678C10.5 9.31242 10.5 9.30807 10.5 9.30372C10.5 9.29937 10.5 9.29502 10.5 9.29067C10.5 9.28632 10.5 9.28198 10.5 9.27763C10.5 9.27328 10.5 9.26894 10.5 9.26459C10.5 9.26025 10.5 9.2559 10.5 9.25156C10.5 9.24722 10.5 9.24288 10.5 9.23854C10.5 9.2342 10.5 9.22986 10.5 9.22552C10.5 9.22118 10.5 9.21684 10.5 9.21251C10.5 9.20817 10.5 9.20384 10.5 9.1995C10.5 9.19517 10.5 9.19084 10.5 9.18651C10.5 9.18218 10.5 9.17785 10.5 9.17352C10.5 9.16919 10.5 9.16486 10.5 9.16054C10.5 9.15621 10.5 9.15189 10.5 9.14756C10.5 9.14324 10.5 9.13892 10.5 9.13459C10.5 9.13027 10.5 9.12595 10.5 9.12164C10.5 9.11732 10.5 9.113 10.5 9.10869C10.5 9.10437 10.5 9.10006 10.5 9.09574C10.5 9.09143 10.5 9.08712 10.5 9.08281C10.5 9.0785 10.5 9.07419 10.5 9.06989C10.5 9.06558 10.5 9.06127 10.5 9.05697C10.5 9.05267 10.5 9.04836 10.5 9.04406C10.5 9.03976 10.5 9.03546 10.5 9.03117C10.5 9.02687 10.5 9.02257 10.5 9.01828C10.5 9.01398 10.5 9.00969 10.5 9.0054C10.5 9.00111 10.5 8.99682 10.5 8.99253C10.5 8.98824 10.5 8.98396 10.5 8.97967C10.5 8.97539 10.5 8.97111 10.5 8.96682C10.5 8.96254 10.5 8.95826 10.5 8.95399C10.5 8.94971 10.5 8.94543 10.5 8.94116C10.5 8.93689 10.5 8.93261 10.5 8.92834C10.5 8.92407 10.5 8.91981 10.5 8.91554C10.5 8.91127 10.5 8.90701 10.5 8.90274C10.5 8.89848 10.5 8.89422 10.5 8.88996C10.5 8.8857 10.5 8.88145 10.5 8.87719C10.5 8.87294 10.5 8.86868 10.5 8.86443C10.5 8.86018 10.5 8.85593 10.5 8.85168C10.5 8.84744 10.5 8.84319 10.5 8.83895C10.5 8.83471 10.5 8.83046 10.5 8.82623C10.5 8.82199 10.5 8.81775 10.5 8.81352C10.5 8.80928 10.5 8.80505 10.5 8.80082C10.5 8.79659 10.5 8.79236 10.5 8.78813C10.5 8.78391 10.5 8.77968 10.5 8.77546C10.5 8.77124 10.5 8.76702 10.5 8.7628C10.5 8.75858 10.5 8.75437 10.5 8.75015C10.5 8.74594 10.5 8.74173 10.5 8.73752C10.5 8.73331 10.5 8.72911 10.5 8.72491C10.5 8.7207 10.5 8.7165 10.5 8.7123C10.5 8.7081 10.5 8.70391 10.5 8.69971C10.5 8.69552 10.5 8.69132 10.5 8.68713C10.5 8.68295 10.5 8.67876 10.5 8.67457C10.5 8.67039 10.5 8.66621 10.5 8.66203C10.5 8.65785 10.5 8.65367 10.5 8.6495C10.5 8.64532 10.5 8.64115 10.5 8.63698C10.5 8.63281 10.5 8.62864 10.5 8.62448C10.5 8.62031 10.5 8.61615 10.5 8.61199C10.5 8.60783 10.5 8.60367 10.5 8.59952C10.5 8.59537 10.5 8.59122 10.5 8.58707C10.5 8.58292 10.5 8.57877 10.5 8.57463C10.5 8.57048 10.5 8.56634 10.5 8.5622C10.5 8.55807 10.5 8.55393 10.5 8.5498C10.5 8.54567 10.5 8.54154 10.5 8.53741C10.5 8.53328 10.5 8.52916 10.5 8.52504C10.5 8.52092 10.5 8.5168 10.5 8.51268C10.5 8.50856 10.5 8.50445 10.5 8.50034C10.5 8.49623 10.5 8.49212 10.5 8.48802C10.5 8.48392 10.5 8.47981 10.5 8.47572C10.5 8.47162 10.5 8.46752 10.5 8.46343C10.5 8.45934 10.5 8.45525 10.5 8.45116C10.5 8.44707 10.5 8.44299 10.5 8.43891C10.5 8.43483 10.5 8.43075 10.5 8.42668C10.5 8.4226 10.5 8.41853 10.5 8.41446C10.5 8.4104 10.5 8.40633 10.5 8.40227C10.5 8.39821 10.5 8.39415 10.5 8.39009C10.5 8.38604 10.5 8.38198 10.5 8.37793C10.5 8.37389 10.5 8.36984 10.5 8.3658C10.5 8.36175 10.5 8.35771 10.5 8.35368C10.5 8.34964 10.5 8.34561 10.5 8.34158C10.5 8.33755 10.5 8.33352 10.5 8.3295C10.5 8.32547 10.5 8.32145 10.5 8.31744C10.5 8.31342 10.5 8.30941 10.5 8.3054C10.5 8.30139 10.5 8.29738 10.5 8.29338C10.5 8.28937 10.5 8.28537 10.5 8.28138C10.5 8.27738 10.5 8.27339 10.5 8.2694C10.5 8.26541 10.5 8.26142 10.5 8.25744C10.5 8.25346 10.5 8.24948 10.5 8.2455C10.5 8.24153 10.5 8.23756 10.5 8.23359C10.5 8.22962 10.5 8.22565 10.5 8.22169C10.5 8.21773 10.5 8.21377 10.5 8.20982C10.5 8.20587 10.5 8.20192 10.5 8.19797C10.5 8.19402 10.5 8.19008 10.5 8.18614C10.5 8.1822 10.5 8.17826 10.5 8.17433C10.5 8.1704 10.5 8.16647 10.5 8.16255C10.5 8.15862 10.5 8.1547 10.5 8.15078C10.5 8.14687 10.5 8.14295 10.5 8.13904C10.5 8.13514 10.5 8.13123 10.5 8.12733C10.5 8.12343 10.5 8.11953 10.5 8.11563C10.5 8.11174 10.5 8.10785 10.5 8.10396C10.5 8.10008 10.5 8.09619 10.5 8.09232C10.5 8.08844 10.5 8.08456 10.5 8.08069C10.5 8.07682 10.5 8.07295 10.5 8.06909C10.5 8.06523 10.5 8.06137 10.5 8.05752C10.5 8.05366 10.5 8.04981 10.5 8.04596C10.5 8.04212 10.5 8.03827 10.5 8.03444C10.5 8.0306 10.5 8.02676 10.5 8.02293C10.5 8.0191 10.5 8.01528 10.5 8.01145C10.5 8.00763 10.5 8.00381 10.5 8H8.5C8.5 8.00381 8.5 8.00763 8.5 8.01145C8.5 8.01528 8.5 8.0191 8.5 8.02293C8.5 8.02676 8.5 8.0306 8.5 8.03444C8.5 8.03827 8.5 8.04212 8.5 8.04596C8.5 8.04981 8.5 8.05366 8.5 8.05752C8.5 8.06137 8.5 8.06523 8.5 8.06909C8.5 8.07295 8.5 8.07682 8.5 8.08069C8.5 8.08456 8.5 8.08844 8.5 8.09232C8.5 8.09619 8.5 8.10008 8.5 8.10396C8.5 8.10785 8.5 8.11174 8.5 8.11563C8.5 8.11953 8.5 8.12343 8.5 8.12733C8.5 8.13123 8.5 8.13514 8.5 8.13904C8.5 8.14295 8.5 8.14687 8.5 8.15078C8.5 8.1547 8.5 8.15862 8.5 8.16255C8.5 8.16647 8.5 8.1704 8.5 8.17433C8.5 8.17826 8.5 8.1822 8.5 8.18614C8.5 8.19008 8.5 8.19402 8.5 8.19797C8.5 8.20192 8.5 8.20587 8.5 8.20982C8.5 8.21377 8.5 8.21773 8.5 8.22169C8.5 8.22565 8.5 8.22962 8.5 8.23359C8.5 8.23756 8.5 8.24153 8.5 8.2455C8.5 8.24948 8.5 8.25346 8.5 8.25744C8.5 8.26142 8.5 8.26541 8.5 8.2694C8.5 8.27339 8.5 8.27738 8.5 8.28138C8.5 8.28537 8.5 8.28937 8.5 8.29338C8.5 8.29738 8.5 8.30139 8.5 8.3054C8.5 8.30941 8.5 8.31342 8.5 8.31744C8.5 8.32145 8.5 8.32547 8.5 8.3295C8.5 8.33352 8.5 8.33755 8.5 8.34158C8.5 8.34561 8.5 8.34964 8.5 8.35368C8.5 8.35771 8.5 8.36175 8.5 8.3658C8.5 8.36984 8.5 8.37389 8.5 8.37793C8.5 8.38198 8.5 8.38604 8.5 8.39009C8.5 8.39415 8.5 8.39821 8.5 8.40227C8.5 8.40633 8.5 8.4104 8.5 8.41446C8.5 8.41853 8.5 8.4226 8.5 8.42668C8.5 8.43075 8.5 8.43483 8.5 8.43891C8.5 8.44299 8.5 8.44707 8.5 8.45116C8.5 8.45525 8.5 8.45934 8.5 8.46343C8.5 8.46752 8.5 8.47162 8.5 8.47572C8.5 8.47981 8.5 8.48392 8.5 8.48802C8.5 8.49212 8.5 8.49623 8.5 8.50034C8.5 8.50445 8.5 8.50856 8.5 8.51268C8.5 8.5168 8.5 8.52092 8.5 8.52504C8.5 8.52916 8.5 8.53328 8.5 8.53741C8.5 8.54154 8.5 8.54567 8.5 8.5498C8.5 8.55393 8.5 8.55807 8.5 8.5622C8.5 8.56634 8.5 8.57048 8.5 8.57463C8.5 8.57877 8.5 8.58292 8.5 8.58707C8.5 8.59122 8.5 8.59537 8.5 8.59952C8.5 8.60367 8.5 8.60783 8.5 8.61199C8.5 8.61615 8.5 8.62031 8.5 8.62448C8.5 8.62864 8.5 8.63281 8.5 8.63698C8.5 8.64115 8.5 8.64532 8.5 8.6495C8.5 8.65367 8.5 8.65785 8.5 8.66203C8.5 8.66621 8.5 8.67039 8.5 8.67457C8.5 8.67876 8.5 8.68295 8.5 8.68713C8.5 8.69132 8.5 8.69552 8.5 8.69971C8.5 8.70391 8.5 8.7081 8.5 8.7123C8.5 8.7165 8.5 8.7207 8.5 8.72491C8.5 8.72911 8.5 8.73331 8.5 8.73752C8.5 8.74173 8.5 8.74594 8.5 8.75015C8.5 8.75437 8.5 8.75858 8.5 8.7628C8.5 8.76702 8.5 8.77124 8.5 8.77546C8.5 8.77968 8.5 8.78391 8.5 8.78813C8.5 8.79236 8.5 8.79659 8.5 8.80082C8.5 8.80505 8.5 8.80928 8.5 8.81352C8.5 8.81775 8.5 8.82199 8.5 8.82623C8.5 8.83046 8.5 8.83471 8.5 8.83895C8.5 8.84319 8.5 8.84744 8.5 8.85168C8.5 8.85593 8.5 8.86018 8.5 8.86443C8.5 8.86868 8.5 8.87294 8.5 8.87719C8.5 8.88145 8.5 8.8857 8.5 8.88996C8.5 8.89422 8.5 8.89848 8.5 8.90274C8.5 8.90701 8.5 8.91127 8.5 8.91554C8.5 8.91981 8.5 8.92407 8.5 8.92834C8.5 8.93261 8.5 8.93689 8.5 8.94116C8.5 8.94543 8.5 8.94971 8.5 8.95399C8.5 8.95826 8.5 8.96254 8.5 8.96682C8.5 8.97111 8.5 8.97539 8.5 8.97967C8.5 8.98396 8.5 8.98824 8.5 8.99253C8.5 8.99682 8.5 9.00111 8.5 9.0054C8.5 9.00969 8.5 9.01398 8.5 9.01828C8.5 9.02257 8.5 9.02687 8.5 9.03117C8.5 9.03546 8.5 9.03976 8.5 9.04406C8.5 9.04836 8.5 9.05267 8.5 9.05697C8.5 9.06127 8.5 9.06558 8.5 9.06989C8.5 9.07419 8.5 9.0785 8.5 9.08281C8.5 9.08712 8.5 9.09143 8.5 9.09574C8.5 9.10006 8.5 9.10437 8.5 9.10869C8.5 9.113 8.5 9.11732 8.5 9.12164C8.5 9.12595 8.5 9.13027 8.5 9.13459C8.5 9.13892 8.5 9.14324 8.5 9.14756C8.5 9.15189 8.5 9.15621 8.5 9.16054C8.5 9.16486 8.5 9.16919 8.5 9.17352C8.5 9.17785 8.5 9.18218 8.5 9.18651C8.5 9.19084 8.5 9.19517 8.5 9.1995C8.5 9.20384 8.5 9.20817 8.5 9.21251C8.5 9.21684 8.5 9.22118 8.5 9.22552C8.5 9.22986 8.5 9.2342 8.5 9.23854C8.5 9.24288 8.5 9.24722 8.5 9.25156C8.5 9.2559 8.5 9.26025 8.5 9.26459C8.5 9.26894 8.5 9.27328 8.5 9.27763C8.5 9.28198 8.5 9.28632 8.5 9.29067C8.5 9.29502 8.5 9.29937 8.5 9.30372C8.5 9.30807 8.5 9.31242 8.5 9.31678C8.5 9.32113 8.5 9.32548 8.5 9.32983C8.5 9.33419 8.5 9.33854 8.5 9.3429C8.5 9.34725 8.5 9.35161 8.5 9.35597C8.5 9.36033 8.5 9.36469 8.5 9.36904C8.5 9.3734 8.5 9.37776 8.5 9.38212C8.5 9.38648 8.5 9.39085 8.5 9.39521C8.5 9.39957 8.5 9.40393 8.5 9.4083C8.5 9.41266 8.5 9.41702 8.5 9.42139C8.5 9.42575 8.5 9.43012 8.5 9.43448C8.5 9.43885 8.5 9.44322 8.5 9.44758C8.5 9.45195 8.5 9.45632 8.5 9.46069C8.5 9.46506 8.5 9.46943 8.5 9.47379C8.5 9.47816 8.5 9.48254 8.5 9.48691C8.5 9.49128 8.5 9.49565 8.5 9.50002C8.5 9.50439 8.5 9.50876 8.5 9.51313C8.5 9.51751 8.5 9.52188 8.5 9.52625C8.5 9.53063 8.5 9.535 8.5 9.53938C8.5 9.54375 8.5 9.54812 8.5 9.5525C8.5 9.55687 8.5 9.56125 8.5 9.56562C8.5 9.57 8.5 9.57438 8.5 9.57875C8.5 9.58313 8.5 9.5875 8.5 9.59188C8.5 9.59626 8.5 9.60063 8.5 9.60501C8.5 9.60939 8.5 9.61377 8.5 9.61814C8.5 9.62252 8.5 9.6269 8.5 9.63128C8.5 9.63566 8.5 9.64003 8.5 9.64441C8.5 9.64879 8.5 9.65317 8.5 9.65755C8.5 9.66193 8.5 9.6663 8.5 9.67068C8.5 9.67506 8.5 9.67944 8.5 9.68382C8.5 9.6882 8.5 9.69258 8.5 9.69696C8.5 9.70133 8.5 9.70571 8.5 9.71009C8.5 9.71447 8.5 9.71885 8.5 9.72323C8.5 9.72761 8.5 9.73199 8.5 9.73636C8.5 9.74074 8.5 9.74512 8.5 9.7495C8.5 9.75388 8.5 9.75826 8.5 9.76264C8.5 9.76701 8.5 9.77139 8.5 9.77577C8.5 9.78015 8.5 9.78452 8.5 9.7889C8.5 9.79328 8.5 9.79766 8.5 9.80203C8.5 9.80641 8.5 9.81079 8.5 9.81516C8.5 9.81954 8.5 9.82392 8.5 9.82829C8.5 9.83267 8.5 9.83704 8.5 9.84142C8.5 9.84579 8.5 9.85017 8.5 9.85454C8.5 9.85892 8.5 9.86329 8.5 9.86767C8.5 9.87204 8.5 9.87641 8.5 9.88079C8.5 9.88516 8.5 9.88953 8.5 9.89391C8.5 9.89828 8.5 9.90265 8.5 9.90702C8.5 9.91139 8.5 9.91576 8.5 9.92013C8.5 9.9245 8.5 9.92887 8.5 9.93324C8.5 9.93761 8.5 9.94198 8.5 9.94635C8.5 9.95072 8.5 9.95508 8.5 9.95945C8.5 9.96382 8.5 9.96818 8.5 9.97255C8.5 9.97692 8.5 9.98128 8.5 9.98564C8.5 9.99001 8.5 9.99437 8.5 9.99874C8.5 10.0031 8.5 10.0075 8.5 10.0118C8.5 10.0162 8.5 10.0205 8.5 10.0249C8.5 10.0293 8.5 10.0336 8.5 10.038C8.5 10.0423 8.5 10.0467 8.5 10.0511C8.5 10.0554 8.5 10.0598 8.5 10.0641C8.5 10.0685 8.5 10.0728 8.5 10.0772C8.5 10.0815 8.5 10.0859 8.5 10.0902C8.5 10.0946 8.5 10.0989 8.5 10.1033C8.5 10.1076 8.5 10.112 8.5 10.1163C8.5 10.1207 8.5 10.125 8.5 10.1294C8.5 10.1337 8.5 10.1381 8.5 10.1424C8.5 10.1468 8.5 10.1511 8.5 10.1554C8.5 10.1598 8.5 10.1641 8.5 10.1685C8.5 10.1728 8.5 10.1771 8.5 10.1815C8.5 10.1858 8.5 10.1902 8.5 10.1945C8.5 10.1988 8.5 10.2032 8.5 10.2075C8.5 10.2118 8.5 10.2162 8.5 10.2205C8.5 10.2248 8.5 10.2291 8.5 10.2335C8.5 10.2378 8.5 10.2421 8.5 10.2465C8.5 10.2508 8.5 10.2551 8.5 10.2594C8.5 10.2637 8.5 10.2681 8.5 10.2724C8.5 10.2767 8.5 10.281 8.5 10.2853C8.5 10.2897 8.5 10.294 8.5 10.2983C8.5 10.3026 8.5 10.3069 8.5 10.3112C8.5 10.3155 8.5 10.3199 8.5 10.3242C8.5 10.3285 8.5 10.3328 8.5 10.3371C8.5 10.3414 8.5 10.3457 8.5 10.35C8.5 10.3543 8.5 10.3586 8.5 10.3629C8.5 10.3672 8.5 10.3715 8.5 10.3758C8.5 10.3801 8.5 10.3844 8.5 10.3887C8.5 10.393 8.5 10.3973 8.5 10.4016C8.5 10.4058 8.5 10.4101 8.5 10.4144C8.5 10.4187 8.5 10.423 8.5 10.4273C8.5 10.4316 8.5 10.4358 8.5 10.4401C8.5 10.4444 8.5 10.4487 8.5 10.453C8.5 10.4572 8.5 10.4615 8.5 10.4658C8.5 10.47 8.5 10.4743 8.5 10.4786C8.5 10.4829 8.5 10.4871 8.5 10.4914C8.5 10.4957 8.5 10.4999 8.5 10.5042C8.5 10.5084 8.5 10.5127 8.5 10.517C8.5 10.5212 8.5 10.5255 8.5 10.5297C8.5 10.534 8.5 10.5382 8.5 10.5425C8.5 10.5467 8.5 10.551 8.5 10.5552C8.5 10.5595 8.5 10.5637 8.5 10.568C8.5 10.5722 8.5 10.5764 8.5 10.5807C8.5 10.5849 8.5 10.5891 8.5 10.5934C8.5 10.5976 8.5 10.6018 8.5 10.6061C8.5 10.6103 8.5 10.6145 8.5 10.6188C8.5 10.623 8.5 10.6272 8.5 10.6314C8.5 10.6356 8.5 10.6399 8.5 10.6441C8.5 10.6483 8.5 10.6525 8.5 10.6567C8.5 10.6609 8.5 10.6651 8.5 10.6693C8.5 10.6735 8.5 10.6778 8.5 10.682C8.5 10.6862 8.5 10.6904 8.5 10.6946C8.5 10.6987 8.5 10.7029 8.5 10.7071C8.5 10.7113 8.5 10.7155 8.5 10.7197C8.5 10.7239 8.5 10.7281 8.5 10.7323C8.5 10.7364 8.5 10.7406 8.5 10.7448C8.5 10.749 8.5 10.7532 8.5 10.7573C8.5 10.7615 8.5 10.7657 8.5 10.7698C8.5 10.774 8.5 10.7782 8.5 10.7823C8.5 10.7865 8.5 10.7907 8.5 10.7948C8.5 10.799 8.5 10.8031 8.5 10.8073C8.5 10.8114 8.5 10.8156 8.5 10.8197C8.5 10.8239 8.5 10.828 8.5 10.8322C8.5 10.8363 8.5 10.8404 8.5 10.8446C8.5 10.8487 8.5 10.8529 8.5 10.857C8.5 10.8611 8.5 10.8652 8.5 10.8694C8.5 10.8735 8.5 10.8776 8.5 10.8817C8.5 10.8859 8.5 10.89 8.5 10.8941C8.5 10.8982 8.5 10.9023 8.5 10.9064C8.5 10.9105 8.5 10.9146 8.5 10.9187C8.5 10.9228 8.5 10.9269 8.5 10.931C8.5 10.9351 8.5 10.9392 8.5 10.9433C8.5 10.9474 8.5 10.9515 8.5 10.9556C8.5 10.9597 8.5 10.9637 8.5 10.9678C8.5 10.9719 8.5 10.976 8.5 10.98C8.5 10.9841 8.5 10.9882 8.5 10.9922C8.5 10.9963 8.5 11.0004 8.5 11.0044C8.5 11.0085 8.5 11.0126 8.5 11.0166C8.5 11.0207 8.5 11.0247 8.5 11.0288C8.5 11.0328 8.5 11.0368 8.5 11.0409C8.5 11.0449 8.5 11.049 8.5 11.053C8.5 11.057 8.5 11.0611 8.5 11.0651C8.5 11.0691 8.5 11.0731 8.5 11.0772C8.5 11.0812 8.5 11.0852 8.5 11.0892C8.5 11.0932 8.5 11.0972 8.5 11.1013C8.5 11.1053 8.5 11.1093 8.5 11.1133C8.5 11.1173 8.5 11.1213 8.5 11.1253C8.5 11.1293 8.5 11.1332 8.5 11.1372C8.5 11.1412 8.5 11.1452 8.5 11.1492C8.5 11.1532 8.5 11.1571 8.5 11.1611C8.5 11.1651 8.5 11.1691 8.5 11.173C8.5 11.177 8.5 11.1809 8.5 11.1849C8.5 11.1889 8.5 11.1928 8.5 11.1968C8.5 11.2007 8.5 11.2047 8.5 11.2086C8.5 11.2126 8.5 11.2165 8.5 11.2204C8.5 11.2244 8.5 11.2283 8.5 11.2322C8.5 11.2362 8.5 11.2401 8.5 11.244C8.5 11.2479 8.5 11.2519 8.5 11.2558C8.5 11.2597 8.5 11.2636 8.5 11.2675C8.5 11.2714 8.5 11.2753 8.5 11.2792C8.5 11.2831 8.5 11.287 8.5 11.2909C8.5 11.2948 8.5 11.2987 8.5 11.3026C8.5 11.3064 8.5 11.3103 8.5 11.3142C8.5 11.3181 8.5 11.3219 8.5 11.3258C8.5 11.3297 8.5 11.3335 8.5 11.3374C8.5 11.3413 8.5 11.3451 8.5 11.349C8.5 11.3528 8.5 11.3567 8.5 11.3605C8.5 11.3644 8.5 11.3682 8.5 11.372C8.5 11.3759 8.5 11.3797 8.5 11.3835C8.5 11.3874 8.5 11.3912 8.5 11.395C8.5 11.3988 8.5 11.4026 8.5 11.4064C8.5 11.4102 8.5 11.4141 8.5 11.4179C8.5 11.4217 8.5 11.4255 8.5 11.4293C8.5 11.433 8.5 11.4368 8.5 11.4406C8.5 11.4444 8.5 11.4482 8.5 11.452C8.5 11.4557 8.5 11.4595 8.5 11.4633C8.5 11.467 8.5 11.4708 8.5 11.4746C8.5 11.4783 8.5 11.4821 8.5 11.4858C8.5 11.4896 8.5 11.4933 8.5 11.4971C8.5 11.5008 8.5 11.5046 8.5 11.5083C8.5 11.512 8.5 11.5157 8.5 11.5195C8.5 11.5232 8.5 11.5269 8.5 11.5306C8.5 11.5343 8.5 11.5381 8.5 11.5418C8.5 11.5455 8.5 11.5492 8.5 11.5529C8.5 11.5566 8.5 11.5603 8.5 11.5639C8.5 11.5676 8.5 11.5713 8.5 11.575C8.5 11.5787 8.5 11.5823 8.5 11.586C8.5 11.5897 8.5 11.5933 8.5 11.597C8.5 11.6007 8.5 11.6043 8.5 11.608C8.5 11.6116 8.5 11.6153 8.5 11.6189C8.5 11.6225 8.5 11.6262 8.5 11.6298C8.5 11.6334 8.5 11.6371 8.5 11.6407C8.5 11.6443 8.5 11.6479 8.5 11.6515C8.5 11.6551 8.5 11.6588 8.5 11.6624C8.5 11.666 8.5 11.6696 8.5 11.6731C8.5 11.6767 8.5 11.6803 8.5 11.6839C8.5 11.6875 8.5 11.6911 8.5 11.6946C8.5 11.6982 8.5 11.7018 8.5 11.7053C8.5 11.7089 8.5 11.7125 8.5 11.716C8.5 11.7196 8.5 11.7231 8.5 11.7267C8.5 11.7302 8.5 11.7337 8.5 11.7373C8.5 11.7408 8.5 11.7443 8.5 11.7478C8.5 11.7514 8.5 11.7549 8.5 11.7584C8.5 11.7619 8.5 11.7654 8.5 11.7689C8.5 11.7724 8.5 11.7759 8.5 11.7794C8.5 11.7829 8.5 11.7864 8.5 11.7899C8.5 11.7933 8.5 11.7968 8.5 11.8003C8.5 11.8037 8.5 11.8072 8.5 11.8107C8.5 11.8141 8.5 11.8176 8.5 11.821C8.5 11.8245 8.5 11.8279 8.5 11.8314C8.5 11.8348 8.5 11.8382 8.5 11.8416C8.5 11.8451 8.5 11.8485 8.5 11.8519C8.5 11.8553 8.5 11.8587 8.5 11.8621C8.5 11.8655 8.5 11.8689 8.5 11.8723C8.5 11.8757 8.5 11.8791 8.5 11.8825C8.5 11.8859 8.5 11.8893 8.5 11.8926C8.5 11.896 8.5 11.8994 8.5 11.9027C8.5 11.9061 8.5 11.9094 8.5 11.9128C8.5 11.9161 8.5 11.9195 8.5 11.9228C8.5 11.9262 8.5 11.9295 8.5 11.9328C8.5 11.9361 8.5 11.9395 8.5 11.9428C8.5 11.9461 8.5 11.9494 8.5 11.9527C8.5 11.956 8.5 11.9593 8.5 11.9626C8.5 11.9659 8.5 11.9692 8.5 11.9725C8.5 11.9757 8.5 11.979 8.5 11.9823C8.5 11.9856 8.5 11.9888 8.5 11.9921C8.5 11.9953 8.5 11.9986 8.5 12.0018C8.5 12.0051 8.5 12.0083 8.5 12.0115C8.5 12.0148 8.5 12.018 8.5 12.0212C8.5 12.0244 8.5 12.0277 8.5 12.0309C8.5 12.0341 8.5 12.0373 8.5 12.0405C8.5 12.0437 8.5 12.0469 8.5 12.05C8.5 12.0532 8.5 12.0564 8.5 12.0596C8.5 12.0628 8.5 12.0659 8.5 12.0691C8.5 12.0722 8.5 12.0754 8.5 12.0786C8.5 12.0817 8.5 12.0848 8.5 12.088C8.5 12.0911 8.5 12.0942 8.5 12.0974C8.5 12.1005 8.5 12.1036 8.5 12.1067C8.5 12.1098 8.5 12.1129 8.5 12.116C8.5 12.1191 8.5 12.1222 8.5 12.1253C8.5 12.1284 8.5 12.1315 8.5 12.1345C8.5 12.1376 8.5 12.1407 8.5 12.1437C8.5 12.1468 8.5 12.1499 8.5 12.1529C8.5 12.156 8.5 12.159 8.5 12.162C8.5 12.1651 8.5 12.1681 8.5 12.1711C8.5 12.1741 8.5 12.1772 8.5 12.1802C8.5 12.1832 8.5 12.1862 8.5 12.1892C8.5 12.1922 8.5 12.1952 8.5 12.1981C8.5 12.2011 8.5 12.2041 8.5 12.2071C8.5 12.21 8.5 12.213 8.5 12.216C8.5 12.2189 8.5 12.2219 8.5 12.2248C8.5 12.2278 8.5 12.2307 8.5 12.2336C8.5 12.2366 8.5 12.2395 8.5 12.2424C8.5 12.2453 8.5 12.2482 8.5 12.2511C8.5 12.254 8.5 12.2569 8.5 12.2598C8.5 12.2627 8.5 12.2656 8.5 12.2685C8.5 12.2713 8.5 12.2742 8.5 12.2771C8.5 12.2799 8.5 12.2828 8.5 12.2856C8.5 12.2885 8.5 12.2913 8.5 12.2942C8.5 12.297 8.5 12.2998 8.5 12.3026C8.5 12.3055 8.5 12.3083 8.5 12.3111C8.5 12.3139 8.5 12.3167 8.5 12.3195C8.5 12.3223 8.5 12.3251 8.5 12.3278C8.5 12.3306 8.5 12.3334 8.5 12.3362C8.5 12.3389 8.5 12.3417 8.5 12.3444C8.5 12.3472 8.5 12.3499 8.5 12.3527C8.5 12.3554 8.5 12.3581 8.5 12.3608C8.5 12.3636 8.5 12.3663 8.5 12.369C8.5 12.3717 8.5 12.3744 8.5 12.3771C8.5 12.3798 8.5 12.3825 8.5 12.3852C8.5 12.3878 8.5 12.3905 8.5 12.3932C8.5 12.3958 8.5 12.3985 8.5 12.4011C8.5 12.4038 8.5 12.4064 8.5 12.4091C8.5 12.4117 8.5 12.4143 8.5 12.417C8.5 12.4196 8.5 12.4222 8.5 12.4248C8.5 12.4274 8.5 12.43 8.5 12.4326C8.5 12.4352 8.5 12.4378 8.5 12.4403C8.5 12.4429 8.5 12.4455 8.5 12.448C8.5 12.4506 8.5 12.4532 8.5 12.4557C8.5 12.4583 8.5 12.4608 8.5 12.4633C8.5 12.4659 8.5 12.4684 8.5 12.4709C8.5 12.4734 8.5 12.4759 8.5 12.4784C8.5 12.4809 8.5 12.4834 8.5 12.4859C8.5 12.4884 8.5 12.4909 8.5 12.4933C8.5 12.4958 8.5 12.4983 8.5 12.5007C8.5 12.5032 8.5 12.5056 8.5 12.5081C8.5 12.5105 8.5 12.5129 8.5 12.5154C8.5 12.5178 8.5 12.5202 8.5 12.5226C8.5 12.525 8.5 12.5274 8.5 12.5298C8.5 12.5322 8.5 12.5346 8.5 12.537C8.5 12.5393 8.5 12.5417 8.5 12.5441C8.5 12.5464 8.5 12.5488 8.5 12.5511C8.5 12.5535 8.5 12.5558 8.5 12.5581C8.5 12.5605 8.5 12.5628 8.5 12.5651C8.5 12.5674 8.5 12.5697 8.5 12.572C8.5 12.5743 8.5 12.5766 8.5 12.5789C8.5 12.5812 8.5 12.5835 8.5 12.5857C8.5 12.588 8.5 12.5902 8.5 12.5925C8.5 12.5947 8.5 12.597 8.5 12.5992C8.5 12.6015 8.5 12.6037 8.5 12.6059C8.5 12.6081 8.5 12.6103 8.5 12.6125C8.5 12.6147 8.5 12.6169 8.5 12.6191C8.5 12.6213 8.5 12.6235 8.5 12.6256C8.5 12.6278 8.5 12.6299 8.5 12.6321C8.5 12.6343 8.5 12.6364 8.5 12.6385C8.5 12.6407 8.5 12.6428 8.5 12.6449C8.5 12.647 8.5 12.6491 8.5 12.6512C8.5 12.6533 8.5 12.6554 8.5 12.6575C8.5 12.6596 8.5 12.6617 8.5 12.6637C8.5 12.6658 8.5 12.6679 8.5 12.6699C8.5 12.672 8.5 12.674 8.5 12.676C8.5 12.6781 8.5 12.6801 8.5 12.6821C8.5 12.6841 8.5 12.6861 8.5 12.6881C8.5 12.6901 8.5 12.6921 8.5 12.6941C8.5 12.6961 8.5 12.6981 8.5 12.7C8.5 12.702 8.5 12.704 8.5 12.7059C8.5 12.7078 8.5 12.7098 8.5 12.7117C8.5 12.7136 8.5 12.7156 8.5 12.7175C8.5 12.7194 8.5 12.7213 8.5 12.7232C8.5 12.7251 8.5 12.727 8.5 12.7289C8.5 12.7307 8.5 12.7326 8.5 12.7345C8.5 12.7363 8.5 12.7382 8.5 12.74C8.5 12.7419 8.5 12.7437 8.5 12.7455C8.5 12.7473 8.5 12.7492 8.5 12.751C8.5 12.7528 8.5 12.7546 8.5 12.7564C8.5 12.7581 8.5 12.7599 8.5 12.7617C8.5 12.7635 8.5 12.7652 8.5 12.767C8.5 12.7687 8.5 12.7705 8.5 12.7722C8.5 12.774 8.5 12.7757 8.5 12.7774C8.5 12.7791 8.5 12.7808 8.5 12.7825C8.5 12.7842 8.5 12.7859 8.5 12.7876C8.5 12.7893 8.5 12.7909 8.5 12.7926C8.5 12.7943 8.5 12.7959 8.5 12.7976C8.5 12.7992 8.5 12.8008 8.5 12.8025C8.5 12.8041 8.5 12.8057 8.5 12.8073C8.5 12.8089 8.5 12.8105 8.5 12.8121C8.5 12.8137 8.5 12.8153 8.5 12.8169C8.5 12.8184 8.5 12.82 8.5 12.8215C8.5 12.8231 8.5 12.8246 8.5 12.8262C8.5 12.8277 8.5 12.8292 8.5 12.8307C8.5 12.8322 8.5 12.8337 8.5 12.8352C8.5 12.8367 8.5 12.8382 8.5 12.8397C8.5 12.8412 8.5 12.8426 8.5 12.8441C8.5 12.8456 8.5 12.847 8.5 12.8484C8.5 12.8499 8.5 12.8513 8.5 12.8527C8.5 12.8541 8.5 12.8556 8.5 12.857C8.5 12.8584 8.5 12.8597 8.5 12.8611C8.5 12.8625 8.5 12.8639 8.5 12.8652C8.5 12.8666 8.5 12.868 8.5 12.8693C8.5 12.8706 8.5 12.872 8.5 12.8733C8.5 12.8746 8.5 12.8759 8.5 12.8772C8.5 12.8785 8.5 12.8798 8.5 12.8811C8.5 12.8824 8.5 12.8837 8.5 12.8849C8.5 12.8862 8.5 12.8875 8.5 12.8887C8.5 12.8899 8.5 12.8912 8.5 12.8924C8.5 12.8936 8.5 12.8948 8.5 12.8961C8.5 12.8973 8.5 12.8985 8.5 12.8996C8.5 12.9008 8.5 12.902 8.5 12.9032C8.5 12.9043 8.5 12.9055 8.5 12.9066C8.5 12.9078 8.5 12.9089 8.5 12.91C8.5 12.9112 8.5 12.9123 8.5 12.9134C8.5 12.9145 8.5 12.9156 8.5 12.9167C8.5 12.9178 8.5 12.9188 8.5 12.9199C8.5 12.921 8.5 12.922 8.5 12.9231C8.5 12.9241 8.5 12.9251 8.5 12.9262C8.5 12.9272 8.5 12.9282 8.5 12.9292C8.5 12.9302 8.5 12.9312 8.5 12.9322C8.5 12.9332 8.5 12.9341 8.5 12.9351C8.5 12.9361 8.5 12.937 8.5 12.938C8.5 12.9389 8.5 12.9398 8.5 12.9408C8.5 12.9417 8.5 12.9426 8.5 12.9435C8.5 12.9444 8.5 12.9453 8.5 12.9462C8.5 12.9471 8.5 12.9479 8.5 12.9488C8.5 12.9496 8.5 12.9505 8.5 12.9513C8.5 12.9522 8.5 12.953 8.5 12.9538C8.5 12.9546 8.5 12.9554 8.5 12.9562C8.5 12.957 8.5 12.9578 8.5 12.9586C8.5 12.9594 8.5 12.9601 8.5 12.9609C8.5 12.9617 8.5 12.9624 8.5 12.9631C8.5 12.9639 8.5 12.9646 8.5 12.9653C8.5 12.966 8.5 12.9667 8.5 12.9674C8.5 12.9681 8.5 12.9688 8.5 12.9694C8.5 12.9701 8.5 12.9708 8.5 12.9714C8.5 12.9721 8.5 12.9727 8.5 12.9733C8.5 12.974 8.5 12.9746 8.5 12.9752C8.5 12.9758 8.5 12.9764 8.5 12.977C8.5 12.9776 8.5 12.9781 8.5 12.9787C8.5 12.9792 8.5 12.9798 8.5 12.9803C8.5 12.9809 8.5 12.9814 8.5 12.9819C8.5 12.9824 8.5 12.983 8.5 12.9834C8.5 12.9839 8.5 12.9844 8.5 12.9849C8.5 12.9854 8.5 12.9858 8.5 12.9863C8.5 12.9867 8.5 12.9872 8.5 12.9876C8.5 12.9881 8.5 12.9885 8.5 12.9889C8.5 12.9893 8.5 12.9897 8.5 12.9901C8.5 12.9905 8.5 12.9908 8.5 12.9912C8.5 12.9916 8.5 12.9919 8.5 12.9923C8.5 12.9926 8.5 12.9929 8.5 12.9932C8.5 12.9936 8.5 12.9939 8.5 12.9942C8.5 12.9945 8.5 12.9948 8.5 12.995C8.5 12.9953 8.5 12.9956 8.5 12.9958C8.5 12.9961 8.5 12.9963 8.5 12.9965C8.5 12.9968 8.5 12.997 8.5 12.9972C8.5 12.9974 8.5 12.9976 8.5 12.9978C8.5 12.998 8.5 12.9981 8.5 12.9983C8.5 12.9985 8.5 12.9986 8.5 12.9988C8.5 12.9989 8.5 12.999 8.5 12.9991C8.5 12.9992 8.5 12.9994 8.5 12.9994C8.5 12.9995 8.5 12.9996 8.5 12.9997C8.5 12.9998 8.5 12.9998 8.5 12.9999C8.5 12.9999 8.5 12.9999 8.5 13C8.5 13 8.5 13 9.5 13Z" fill="black"/>
</svg>
