<svg width="18" height="16" viewBox="0 0 18 16" fill="none" xmlns="http://www.w3.org/2000/svg">
<path d="M9 4C9 4.55228 9.44771 5 10 5C10.5523 5 11 4.55228 11 4H9ZM10 2H11C11 1.44772 10.5523 1 10 1V2ZM1 2V1C0.447715 1 0 1.44772 0 2H1ZM1 14H0C0 14.5523 0.447715 15 1 15L1 14ZM10 14V15C10.5523 15 11 14.5523 11 14H10ZM11 12C11 11.4477 10.5523 11 10 11C9.44771 11 9 11.4477 9 12H11ZM11 4V2H9V4H11ZM10 1H1V3H10V1ZM0 2V14H2V2H0ZM1 15H10V13H1V15ZM11 14V12H9V14H11Z" fill="black"/>
<path d="M14 5L17 8L14 11" stroke="black" stroke-width="2" stroke-linecap="round" stroke-linejoin="round"/>
<path d="M5 8H17" stroke="black" stroke-width="2" stroke-linecap="round"/>
</svg>
