<svg width="59" height="54" viewBox="0 0 59 54" fill="none" xmlns="http://www.w3.org/2000/svg">
<path d="M25.5421 0.23095C25.4049 0.240503 25.2764 0.301666 25.1825 0.40212C25.0887 0.502573 25.0364 0.634853 25.0362 0.772315V28.1175C25.0362 28.1797 25.0237 28.2412 24.9993 28.2984C24.9748 28.3555 24.9391 28.4072 24.8942 28.4501C24.8492 28.4931 24.796 28.5265 24.7378 28.5483C24.6796 28.5701 24.6175 28.5799 24.5554 28.5771L19.4789 28.3274C19.3568 28.322 19.2365 28.3578 19.1371 28.4289C19.0378 28.5001 18.9652 28.6025 18.931 28.7198C18.3137 30.8768 18.2466 32.4191 18.2403 34.3705C18.2386 34.5718 18.3117 34.7666 18.4455 34.917C18.5794 35.0674 18.7643 35.1628 18.9646 35.1847C27.8116 36.1625 37.5929 36.11 48.6591 35.6148C48.8694 35.6046 49.0678 35.5139 49.2132 35.3616C49.3585 35.2093 49.4398 35.007 49.44 34.7965C49.44 32.5681 49.3687 30.9041 48.7451 28.7114C48.71 28.5965 48.6378 28.4966 48.5398 28.4271C48.4418 28.3577 48.3235 28.3226 48.2035 28.3274L41.1494 28.5729C41.0877 28.5748 41.0262 28.5644 40.9686 28.5422C40.911 28.52 40.8584 28.4865 40.814 28.4437C40.7695 28.4009 40.7342 28.3496 40.7099 28.2928C40.6857 28.2361 40.673 28.175 40.6728 28.1133V1.58646C40.6732 1.46356 40.6319 1.34415 40.5556 1.24774C40.4793 1.15132 40.3726 1.08358 40.2529 1.05559C35.7412 0.0693799 32.2036 -0.243269 25.5421 0.23095ZM31.2589 6.77349C32.044 6.58322 32.851 6.49785 33.6586 6.5196C33.7699 6.5196 33.8767 6.56381 33.9555 6.64251C34.0342 6.72122 34.0784 6.82796 34.0784 6.93926L33.8895 27.9224C33.8847 28.0286 33.8398 28.129 33.7638 28.2034C33.6878 28.2778 33.5864 28.3206 33.4801 28.3232H32.1847C32.0891 28.3212 31.997 28.2866 31.9237 28.2252C31.8504 28.1637 31.8003 28.0791 31.7817 27.9853C31.1056 24.1328 30.9671 10.8484 30.9587 7.17637C30.9585 7.08583 30.9877 6.99769 31.0418 6.92508C31.0959 6.85247 31.1721 6.79929 31.2589 6.77349Z" fill="#FF9700"/>
<path d="M43.6686 25.3499C45.0586 25.8128 46.5117 26.0591 47.9767 26.0801C48.1789 26.0878 48.3768 26.0201 48.5319 25.8903C48.6871 25.7604 48.7885 25.5776 48.8164 25.3772C49.1901 22.683 49.3119 21.4282 49.3245 18.7423C49.3245 18.6344 49.3674 18.5308 49.4438 18.4545C49.5202 18.3782 49.6238 18.3353 49.7318 18.3353H52.3456C52.4484 18.335 52.5475 18.3735 52.623 18.4432C52.6985 18.5128 52.7449 18.6084 52.7529 18.7109C53.0615 22.7501 53.1161 27.2531 52.7529 33.2753C52.7461 33.3801 52.7699 33.4846 52.8213 33.5762C52.8727 33.6678 52.9496 33.7426 53.0426 33.7914C54.7222 34.6643 56.1918 34.8175 58.0666 34.8406C58.2781 34.843 58.4823 34.7636 58.6365 34.6189C58.7907 34.4741 58.8829 34.2754 58.8937 34.0642C59.3283 25.2513 58.3647 11.7277 57.1995 3.06584C57.1851 2.96006 57.14 2.86081 57.0699 2.78029C56.9998 2.69976 56.9076 2.64148 56.8048 2.6126C53.6283 1.7376 51.0607 1.01159 44.7183 1.25919C44.5117 1.26811 44.3161 1.35485 44.1708 1.50198C44.0256 1.64911 43.9414 1.84574 43.9352 2.05235L43.2886 24.8275C43.2874 24.9438 43.3237 25.0574 43.3921 25.1515C43.4605 25.2456 43.5575 25.3152 43.6686 25.3499ZM50.0152 7.30443C50.0333 7.21269 50.0816 7.12962 50.1523 7.06841C50.2231 7.00721 50.3123 6.97138 50.4057 6.9666C51.0024 6.93321 51.6001 7.01295 52.1671 7.20161C52.2509 7.23303 52.322 7.29116 52.3695 7.36701C52.4169 7.44287 52.438 7.53223 52.4296 7.62128L52.2763 11.7906C52.2686 11.8794 52.232 11.9632 52.1721 12.0291C52.1122 12.0951 52.0322 12.1395 51.9446 12.1557C51.3852 12.2629 50.8143 12.2968 50.2461 12.2565C50.1425 12.2506 50.0451 12.2054 49.9737 12.1301C49.9023 12.0549 49.8623 11.9552 49.862 11.8515C49.862 11.2325 49.8976 8.02625 50.0194 7.31282L50.0152 7.30443Z" fill="#FF9700"/>
<path d="M15.7649 27.5909C12.3869 27.4923 10.4365 27.4671 7.92558 26.8775C7.74293 26.8355 7.65686 26.6929 7.56238 26.5313C6.94725 25.4821 7.23277 22.9138 7.20968 21.1365C7.20992 21.0823 7.22108 21.0286 7.24248 20.9787C7.26388 20.9289 7.29509 20.8838 7.33426 20.8462C7.37342 20.8086 7.41975 20.7793 7.47048 20.76C7.52121 20.7406 7.57531 20.7317 7.62956 20.7336L21.5594 20.9099C21.6821 20.9192 21.8041 20.8843 21.9035 20.8116C22.0028 20.7389 22.0728 20.6331 22.101 20.5133C22.4054 18.6248 22.4054 16.046 21.9897 14.4009C21.8722 13.9393 21.6034 13.5406 21.1269 13.5616L7.70514 13.9015C7.59551 13.905 7.48888 13.8654 7.40806 13.7913C7.32724 13.7172 7.27864 13.6144 7.27266 13.505C7.23277 12.0361 7.23277 10.6093 7.8542 9.2181C7.92978 9.04603 8.02846 8.89076 8.21321 8.86558C12.6885 8.24863 17.2192 8.14022 21.7189 8.54244C22.1913 8.5865 22.4726 8.15425 22.5587 7.68633C22.9786 5.16835 22.9786 3.45403 23.0101 0.36531C23.0101 0.134495 22.7266 -0.00609204 22.4957 0.000202898C12.3869 0.306557 4.94228 1.16477 1.5034 2.03976C1.38773 2.06314 1.28209 2.12164 1.20093 2.20727C1.11977 2.2929 1.06703 2.40148 1.04992 2.51818C-0.444883 15.2151 -0.251735 19.9447 1.04992 33.1053C1.07002 33.2268 1.12755 33.339 1.21448 33.4262C1.30142 33.5135 1.41342 33.5715 1.53489 33.5921C4.36493 34.3622 11.524 34.9329 15.2568 34.8175C15.3681 34.8251 15.4786 34.795 15.5708 34.7322C15.6629 34.6695 15.7313 34.5776 15.7649 34.4713C16.105 32.3583 16.105 31.2126 16.6047 28.4303C16.6845 27.9686 16.2331 27.6056 15.7649 27.5909Z" fill="#FF9700"/>
<path d="M34.9368 44.8874L35.0733 46.9206C35.075 46.9437 35.0705 46.9668 35.0601 46.9875C35.0498 47.0082 35.034 47.0257 35.0145 47.0381C34.6585 47.2495 34.2482 47.3517 33.8346 47.3319C33.8051 47.3282 33.7778 47.3145 33.7572 47.2931C33.7366 47.2717 33.7239 47.244 33.7213 47.2144C33.5848 45.5525 33.7464 43.1185 34.0299 40.9992C34.0366 40.9471 34.0326 40.8943 34.0182 40.8438C34.0037 40.7933 33.9792 40.7464 33.946 40.7057C33.9128 40.6651 33.8716 40.6316 33.825 40.6074C33.7785 40.5832 33.7274 40.5687 33.6751 40.5648C32.8678 40.4891 32.0541 40.6056 31.3006 40.9048C31.2475 40.9301 31.201 40.9674 31.1646 41.0136C31.1282 41.0598 31.1029 41.1137 31.0907 41.1712C30.5385 43.6284 30.4608 46.8661 30.5742 50.1583C30.5769 50.2576 30.618 50.352 30.6889 50.4216C30.7597 50.4913 30.8548 50.5308 30.9542 50.5318C32.3944 50.5549 34.2293 50.3786 35.2098 50.0639C35.2288 50.0577 35.249 50.0561 35.2687 50.059C35.2885 50.0619 35.3074 50.0693 35.3238 50.0807C35.3403 50.092 35.3539 50.107 35.3636 50.1245C35.3733 50.142 35.3788 50.1614 35.3798 50.1814C35.4113 51.0207 35.2517 52.2524 35.0901 53.3624C35.0759 53.45 35.0926 53.5398 35.1375 53.6164C35.1823 53.693 35.2524 53.7516 35.3357 53.7821C35.9404 54.0045 37.093 54.0507 37.79 53.9479C37.8706 53.9366 37.9455 53.9001 38.004 53.8435C38.0625 53.7869 38.1015 53.7133 38.1154 53.6331C38.5584 51.1466 38.4807 47.42 38.2225 44.5978C38.2146 44.5107 38.1772 44.4289 38.1165 44.366C38.0558 44.303 37.9754 44.2627 37.8886 44.2516C36.9823 44.1525 36.0653 44.2382 35.193 44.5034C35.1146 44.5313 35.0473 44.5837 35.0012 44.6529C34.955 44.7221 34.9325 44.8043 34.9368 44.8874Z" fill="#FF9700"/>
<path d="M20.7028 50.2548C20.3753 50.9724 20.348 51.9859 20.4698 53.3624C20.477 53.4506 20.5139 53.5337 20.5746 53.5981C20.6352 53.6626 20.716 53.7045 20.8036 53.717C22.7792 53.9856 26.6296 54.0738 28.9914 53.8723C29.0164 53.8704 29.0402 53.8609 29.0597 53.8452C29.0792 53.8295 29.0935 53.8082 29.1006 53.7842C29.3869 52.7741 29.4858 51.7202 29.3924 50.6745C29.3854 50.5741 29.3392 50.4805 29.2638 50.4138C29.1885 50.347 29.0899 50.3126 28.9893 50.3178L25.9703 50.5465C25.9411 50.5467 25.9127 50.537 25.8896 50.5191C25.8666 50.5012 25.8502 50.476 25.8432 50.4477C25.8362 50.4194 25.8389 50.3895 25.8509 50.3629C25.8629 50.3363 25.8835 50.3145 25.9094 50.301C28.6723 49.0021 30.4589 46.1736 29.3588 43.5864C28.1181 40.6676 24.717 39.3604 20.6 42.1952C20.5393 42.2371 20.492 42.2957 20.4637 42.3637C20.4354 42.4318 20.4273 42.5066 20.4404 42.5792C20.5664 43.2695 20.8876 44.2956 21.4901 44.8978C21.5503 44.957 21.6282 44.995 21.7119 45.0059C21.7956 45.0169 21.8807 45.0003 21.9541 44.9587C23.8436 43.8801 25.0823 43.9578 25.6365 45.1916C25.9682 45.9239 25.7982 46.7947 24.6414 47.6172L20.8624 50.0744C20.791 50.1156 20.735 50.179 20.7028 50.2548Z" fill="#FF9700"/>
<path d="M45.4783 44.3964C49.9165 44.3502 51.2791 44.4425 55.7656 44.0417C55.8753 44.0277 55.9867 44.0483 56.0842 44.1006C56.1816 44.1528 56.2604 44.2342 56.3093 44.3334C56.662 45.1035 56.6536 45.9092 56.6515 46.7968C56.6563 46.9146 56.6205 47.0305 56.5502 47.1251C56.48 47.2198 56.3794 47.2876 56.2652 47.3172C53.1811 48.0453 49.8094 48.765 45.0374 48.4209C44.9175 48.4121 44.8047 48.3604 44.7199 48.2752C44.6351 48.19 44.5838 48.0771 44.5755 47.9572C44.5142 46.8811 44.637 45.8025 44.9387 44.7678C44.9745 44.6547 45.047 44.5567 45.1447 44.4895C45.2425 44.4222 45.3598 44.3894 45.4783 44.3964Z" fill="#FF9700"/>
<path d="M12.9664 43.9452C8.52821 43.8151 7.43651 43.8844 2.9563 43.3996C2.84706 43.3838 2.73558 43.4024 2.63738 43.4527C2.53918 43.5031 2.45912 43.5829 2.40835 43.6808C2.00962 44.4412 1.7838 45.2802 1.74702 46.1379C1.74 46.2548 1.77296 46.3707 1.84048 46.4664C1.90801 46.5621 2.00609 46.632 2.11862 46.6646C5.1901 47.4494 8.82004 48.2342 13.5984 47.9782C13.7181 47.9711 13.8313 47.9212 13.9172 47.8376C14.0032 47.754 14.0562 47.6422 14.0665 47.5228C14.1401 46.4263 13.9418 45.3286 13.4892 44.3271C13.4495 44.219 13.3787 44.125 13.2857 44.0571C13.1926 43.9891 13.0816 43.9502 12.9664 43.9452Z" fill="#FF9700"/>
</svg>
