<svg width="80" height="80" viewBox="0 0 80 80" fill="none" xmlns="http://www.w3.org/2000/svg">
<rect opacity="0.24" x="26" y="1" width="5" height="6" fill="#FF9900"/>
<path opacity="0.4" d="M1.5 22.5L5 46.5C11.8 39.3 27.5 39.1667 34.5 40L37.5 22.5H1.5Z" fill="#FF9900"/>
<path opacity="0.24" d="M52 57H74V73H56L52 65V57Z" fill="#FF9900"/>
<rect opacity="0.4" x="52" y="25" width="23" height="20" fill="#FF9900"/>
<path opacity="0.4" d="M5 58H52V66H46L38.5 75L20.5 66H5V58Z" fill="#FF9900"/>
<path d="M76.129 43.871V27.0968C76.129 24.9626 74.3923 23.2258 72.2581 23.2258H69.6774C68.6826 23.2258 67.7832 23.6142 67.0968 24.2323C66.4103 23.6129 65.511 23.2258 64.5161 23.2258H61.9355C60.9406 23.2258 60.0413 23.6142 59.3548 24.2323C58.6684 23.6129 57.769 23.2258 56.7742 23.2258H54.1935C52.0594 23.2258 50.3226 24.9626 50.3226 27.0968V43.6542C47.3458 41.591 43.0013 39.8348 36.64 39.0916L38.6723 24.8645C38.6968 24.6929 38.7097 24.5187 38.7097 24.3445C38.7097 22.3045 37.0503 20.6452 35.0103 20.6452H23.2258V9.03226C23.2258 8.32129 23.8052 7.74194 24.5161 7.74194H34.8387C36.9729 7.74194 38.7097 6.00516 38.7097 3.87097C38.7097 1.73677 36.9729 0 34.8387 0H23.2258C18.9561 0 15.4839 3.47226 15.4839 7.74194V20.6452H3.69935C1.65935 20.6452 0 22.3045 0 24.3445C0 24.5187 0.0129032 24.6929 0.0374194 24.8684L3.1471 46.6335C0.0799999 50.2864 0 53.889 0 54.1935C0 56.4439 1.45548 58.3406 3.4671 59.0465C2.90839 59.871 2.58065 60.8658 2.58065 61.9355C2.58065 63.311 3.12903 64.5536 4.00903 65.48C1.62194 66.8 0 69.3419 0 72.2581C0 76.5277 3.47226 80 7.74194 80H46.4516H49.0323H80V52.9032V51.6129V47.7419C80 45.6077 78.2632 43.871 76.129 43.871ZM68.3871 27.0968C68.3871 26.3858 68.9664 25.8064 69.6774 25.8064H72.2581C72.969 25.8064 73.5484 26.3858 73.5484 27.0968V43.871H68.3871V27.0968ZM60.6452 27.0968C60.6452 26.3858 61.2245 25.8064 61.9355 25.8064H64.5161C65.2271 25.8064 65.8064 26.3858 65.8064 27.0968V43.871H60.6452V27.0968ZM52.9032 27.0968C52.9032 26.3858 53.4826 25.8064 54.1935 25.8064H56.7742C57.4852 25.8064 58.0645 26.3858 58.0645 27.0968V43.871H52.9032V27.0968ZM32.2581 2.58065H34.8387C35.5497 2.58065 36.129 3.16 36.129 3.87097C36.129 4.58194 35.5497 5.16129 34.8387 5.16129H32.2581V2.58065ZM27.0968 2.58065H29.6774V5.16129H27.0968V2.58065ZM18.0645 7.74194C18.0645 4.89548 20.3794 2.58065 23.2258 2.58065H24.5161V5.16129C22.3819 5.16129 20.6452 6.89806 20.6452 9.03226V20.6452H18.0645V7.74194ZM2.77806 25.8064L2.59226 24.5071C2.58452 24.4529 2.58065 24.3987 2.58065 24.3445C2.58065 23.7277 3.08258 23.2258 3.69935 23.2258H15.4839H23.2258H35.0103C35.6271 23.2258 36.129 23.7277 36.129 24.3445C36.129 24.3987 36.1252 24.4529 36.1187 24.5032L35.9316 25.8064H33.5484C32.8358 25.8064 32.2581 26.3841 32.2581 27.0968C32.2581 27.8094 32.8358 28.3871 33.5484 28.3871H35.5626L34.8258 33.5484H3.88387L3.1471 28.3871H28.3871C29.0997 28.3871 29.6774 27.8094 29.6774 27.0968C29.6774 26.3841 29.0997 25.8064 28.3871 25.8064H2.77806ZM34.4581 36.129L34.0684 38.8594C32.6865 38.7639 31.231 38.7097 29.6774 38.7097H27.0968C15.8529 38.7097 9.28516 41.3277 5.43613 44.4116L4.2529 36.129H34.4581ZM2.58065 54.1935C2.58065 54.0645 2.86064 41.2903 27.0968 41.2903H29.6774C53.7458 41.2903 54.1871 53.6748 54.1935 54.1935C54.1935 55.6168 53.0361 56.7742 51.6129 56.7742H50.3226H49.0323H7.74194H5.16129C3.73806 56.7742 2.58065 55.6168 2.58065 54.1935ZM7.74194 64.5161C6.31871 64.5161 5.16129 63.3587 5.16129 61.9355C5.16129 60.5123 6.31871 59.3548 7.74194 59.3548H49.0323C50.4555 59.3548 51.6129 60.5123 51.6129 61.9355C51.6129 63.3587 50.4555 64.5161 49.0323 64.5161H7.74194ZM43.6465 67.0968L38.3523 73.2735L24.2323 67.0968H43.6465ZM49.0323 77.4193H46.4516H7.74194C4.89548 77.4193 2.58065 75.1045 2.58065 72.2581C2.58065 69.4116 4.89548 67.0968 7.74194 67.0968H17.7948L39.0671 76.4039L47.0452 67.0968H49.0323C51.8787 67.0968 54.1935 69.4116 54.1935 72.2581C54.1935 75.1045 51.8787 77.4193 49.0323 77.4193ZM52.7665 65.48C53.6452 64.5536 54.1935 63.311 54.1935 61.9355C54.1935 60.991 53.92 60.1174 53.4761 59.3548H72.2581V72.2581H56.7742C56.7742 71.3523 56.609 70.4864 56.3226 69.6774H63.2258C63.9384 69.6774 64.5161 69.0997 64.5161 68.3871C64.5161 67.6745 63.9384 67.0968 63.2258 67.0968H54.7871C54.209 66.4529 53.529 65.9019 52.7665 65.48ZM77.4193 51.6129H76.129C75.4164 51.6129 74.8387 52.1906 74.8387 52.9032C74.8387 53.6158 75.4164 54.1935 76.129 54.1935H77.4193V77.4193H54.7871C55.4568 76.6735 55.9819 75.8013 56.3226 74.8387H74.8387V56.7742H56.0568C56.5006 56.0116 56.7742 55.1381 56.7742 54.1935H70.9677C71.6804 54.1935 72.2581 53.6158 72.2581 52.9032C72.2581 52.1906 71.6804 51.6129 70.9677 51.6129H56.3368C55.9174 50.1781 55.089 48.3161 53.4735 46.4516H76.129C76.84 46.4516 77.4193 47.0297 77.4193 47.7419V51.6129Z" fill="#FF9900"/>
<path d="M67.0967 68.3871C67.0967 69.0997 67.6744 69.6774 68.387 69.6774C69.0996 69.6774 69.6773 69.0997 69.6773 68.3871C69.6773 67.6745 69.0996 67.0968 68.387 67.0968C67.6744 67.0968 67.0967 67.6745 67.0967 68.3871Z" fill="#FF9900"/>
<path d="M16.7744 45.1613C16.7744 45.8739 17.3521 46.4516 18.0647 46.4516C18.7774 46.4516 19.3551 45.8739 19.3551 45.1613C19.3551 44.4487 18.7774 43.871 18.0647 43.871C17.3521 43.871 16.7744 44.4487 16.7744 45.1613Z" fill="#FF9900"/>
<path d="M21.9355 47.7419C21.9355 48.4546 22.5132 49.0323 23.2259 49.0323C23.9385 49.0323 24.5162 48.4546 24.5162 47.7419C24.5162 47.0293 23.9385 46.4516 23.2259 46.4516C22.5132 46.4516 21.9355 47.0293 21.9355 47.7419Z" fill="#FF9900"/>
<path d="M27.0967 45.1613C27.0967 45.8739 27.6744 46.4516 28.387 46.4516C29.0996 46.4516 29.6773 45.8739 29.6773 45.1613C29.6773 44.4487 29.0996 43.871 28.387 43.871C27.6744 43.871 27.0967 44.4487 27.0967 45.1613Z" fill="#FF9900"/>
<path d="M34.8389 49.0323C34.8389 49.7449 35.4166 50.3226 36.1292 50.3226C36.8418 50.3226 37.4195 49.7449 37.4195 49.0323C37.4195 48.3196 36.8418 47.7419 36.1292 47.7419C35.4166 47.7419 34.8389 48.3196 34.8389 49.0323Z" fill="#FF9900"/>
<path d="M41.2905 45.1613C41.2905 45.8739 41.8682 46.4516 42.5809 46.4516C43.2935 46.4516 43.8712 45.8739 43.8712 45.1613C43.8712 44.4487 43.2935 43.871 42.5809 43.871C41.8682 43.871 41.2905 44.4487 41.2905 45.1613Z" fill="#FF9900"/>
<path d="M9.03223 50.3226C9.03223 51.0352 9.60992 51.6129 10.3225 51.6129C11.0352 51.6129 11.6129 51.0352 11.6129 50.3226C11.6129 49.61 11.0352 49.0323 10.3225 49.0323C9.60992 49.0323 9.03223 49.61 9.03223 50.3226Z" fill="#FF9900"/>
</svg>
