<svg width="103" height="80" viewBox="0 0 103 80" fill="none" xmlns="http://www.w3.org/2000/svg">
<path d="M18.7766 37.5266C8.42237 37.5266 0 29.1102 0 18.7633C0 8.41638 8.42237 0 18.7766 0C29.1309 0 37.5532 8.41638 37.5532 18.7633C37.5532 29.1102 29.1309 37.5266 18.7766 37.5266ZM18.7766 2.68047C9.90173 2.68047 2.68237 9.8947 2.68237 18.7633C2.68237 27.6319 9.90173 34.8461 18.7766 34.8461C27.6515 34.8461 34.8709 27.6319 34.8709 18.7633C34.8709 9.8947 27.6515 2.68047 18.7766 2.68047Z" fill="#FF9900"/>
<path d="M18.7766 45.568C8.42237 45.568 0 37.1516 0 26.8047C0 26.0632 0.599212 25.4644 1.34119 25.4644C2.08316 25.4644 2.68237 26.0632 2.68237 26.8047C2.68237 35.6733 9.90173 42.8875 18.7766 42.8875C27.6515 42.8875 34.8709 35.6733 34.8709 26.8047C34.8709 26.0632 35.4701 25.4644 36.2121 25.4644C36.954 25.4644 37.5532 26.0632 37.5532 26.8047C37.5532 37.1516 29.1309 45.568 18.7766 45.568Z" fill="#FF9900"/>
<path d="M1.34119 28.1449C0.599212 28.1449 0 27.5461 0 26.8047V18.7633C0 18.0218 0.599212 17.423 1.34119 17.423C2.08316 17.423 2.68237 18.0218 2.68237 18.7633V26.8047C2.68237 27.5461 2.08316 28.1449 1.34119 28.1449Z" fill="#FF9900"/>
<path d="M36.2123 28.1449C35.4703 28.1449 34.8711 27.5461 34.8711 26.8047V18.7633C34.8711 18.0218 35.4703 17.423 36.2123 17.423C36.9543 17.423 37.5535 18.0218 37.5535 18.7633V26.8047C37.5535 27.5461 36.9543 28.1449 36.2123 28.1449Z" fill="#FF9900"/>
<path d="M18.7762 45.568C18.0343 45.568 17.4351 44.9692 17.4351 44.2277V36.1863C17.4351 35.4449 18.0343 34.8461 18.7762 34.8461C19.5182 34.8461 20.1174 35.4449 20.1174 36.1863V44.2277C20.1174 44.9692 19.5182 45.568 18.7762 45.568Z" fill="#FF9900"/>
<path d="M28.1644 42.8273C27.4225 42.8273 26.8232 42.2279 26.8232 41.4871V33.4457C26.8232 32.7042 27.4225 32.1054 28.1644 32.1054C28.9064 32.1054 29.5056 32.7042 29.5056 33.4457V41.4871C29.5056 42.2279 28.9064 42.8273 28.1644 42.8273Z" fill="#FF9900"/>
<path d="M9.38855 42.8273C8.64658 42.8273 8.04736 42.2279 8.04736 41.4871V33.4457C8.04736 32.7042 8.64658 32.1054 9.38855 32.1054C10.1305 32.1054 10.7297 32.7042 10.7297 33.4457V41.4871C10.7297 42.2279 10.1305 42.8273 9.38855 42.8273Z" fill="#FF9900"/>
<path d="M37.5529 65.6714H18.7762C18.0343 65.6714 17.4351 65.0726 17.4351 64.3312C17.4351 63.5898 18.0343 62.991 18.7762 62.991H37.5529C38.2948 62.991 38.8941 63.5898 38.8941 64.3312C38.8941 65.0726 38.2948 65.6714 37.5529 65.6714Z" fill="#FF9900"/>
<path d="M18.7762 65.6715C18.0343 65.6715 17.4351 65.0727 17.4351 64.3312V50.9289C17.4351 50.1874 18.0343 49.5887 18.7762 49.5887C19.5182 49.5887 20.1174 50.1874 20.1174 50.9289V64.3312C20.1174 65.0727 19.5182 65.6715 18.7762 65.6715Z" fill="#FF9900"/>
<path d="M14.7528 56.2898C14.4097 56.2898 14.0658 56.1583 13.8045 55.8972C13.28 55.373 13.28 54.5262 13.8045 54.002L17.8281 49.9813C18.3527 49.4571 19.2001 49.4571 19.7246 49.9813C20.2492 50.5055 20.2492 51.3523 19.7246 51.8765L15.7011 55.8972C15.4398 56.1583 15.096 56.2898 14.7528 56.2898Z" fill="#FF9900"/>
<path d="M22.8003 56.2898C22.4571 56.2898 22.1133 56.1583 21.852 55.8972L17.8285 51.8765C17.3039 51.3523 17.3039 50.5055 17.8285 49.9813C18.353 49.4571 19.2004 49.4571 19.725 49.9813L23.7486 54.002C24.2731 54.5262 24.2731 55.373 23.7486 55.8972C23.4873 56.1583 23.1435 56.2898 22.8003 56.2898Z" fill="#FF9900"/>
<path d="M63.0357 20.1035H42.9178C42.1759 20.1035 41.5767 19.5047 41.5767 18.7633C41.5767 18.0218 42.1759 17.423 42.9178 17.423H63.0357C63.7776 17.423 64.3768 18.0218 64.3768 18.7633C64.3768 19.5047 63.7776 20.1035 63.0357 20.1035Z" fill="#FF9900"/>
<path d="M63.0355 32.1656C62.2935 32.1656 61.6943 31.5668 61.6943 30.8254V18.7633C61.6943 18.0218 62.2935 17.423 63.0355 17.423C63.7775 17.423 64.3767 18.0218 64.3767 18.7633V30.8254C64.3767 31.5668 63.7775 32.1656 63.0355 32.1656Z" fill="#FF9900"/>
<path d="M63.0355 32.1656C62.6924 32.1656 62.3486 32.0341 62.0873 31.773C61.5627 31.2488 61.5627 30.402 62.0873 29.8778L66.1108 25.8571C66.6354 25.3329 67.4828 25.3329 68.0073 25.8571C68.5319 26.3813 68.5319 27.2281 68.0073 27.7523L63.9838 31.773C63.7225 32.0341 63.3787 32.1656 63.0355 32.1656Z" fill="#FF9900"/>
<path d="M63.0357 32.1656C62.6925 32.1656 62.3487 32.0341 62.0874 31.773L58.0638 27.7523C57.5393 27.2281 57.5393 26.3813 58.0638 25.8571C58.5884 25.3329 59.4358 25.3329 59.9603 25.8571L63.9839 29.8778C64.5085 30.402 64.5085 31.2488 63.9839 31.773C63.7226 32.0341 63.3788 32.1656 63.0357 32.1656Z" fill="#FF9900"/>
<path d="M18.7762 25.4644C18.0343 25.4644 17.4351 24.8657 17.4351 24.1242V12.0621C17.4351 11.3206 18.0343 10.7219 18.7762 10.7219C19.5182 10.7219 20.1174 11.3206 20.1174 12.0621V24.1242C20.1174 24.8657 19.5182 25.4644 18.7762 25.4644Z" fill="#FF9900"/>
<path opacity="0.24" d="M28.1549 33.4391C25.4457 35.1811 22.2263 36.1863 18.7797 36.1863C15.3331 36.1863 12.1124 35.1811 9.40511 33.4391C4.56296 30.3562 1.34424 24.9416 1.34424 18.7633V26.8047C1.34424 32.9699 4.54986 38.3845 9.39136 41.4805C12.1006 43.2225 15.3193 44.2277 18.7797 44.2277C22.24 44.2277 25.4574 43.2225 28.168 41.4805C33.0082 38.3832 36.2151 32.9686 36.2151 26.8047V18.7633C36.2151 24.9416 32.9964 30.3562 28.1549 33.4391Z" fill="#FF9900"/>
<path opacity="0.4" d="M36.2151 18.7633C36.2151 24.9416 32.9964 30.3562 28.1549 33.4391C25.4457 35.1811 22.2263 36.1863 18.7797 36.1863C15.3331 36.1863 12.1124 35.1811 9.40511 33.4391C4.56296 30.3562 1.34424 24.9416 1.34424 18.7633C1.34424 9.14017 9.1484 1.34024 18.7797 1.34024C28.4096 1.34024 36.2151 9.14017 36.2151 18.7633Z" fill="#FF9900"/>
<path opacity="0.4" d="M48.0171 56.6782H97.9299V65.1765H91.558L83.5932 74.7371L64.4777 65.1765H48.0171V56.6782Z" fill="#FF9900"/>
<path fill-rule="evenodd" clip-rule="evenodd" d="M96.1211 41.316C92.9473 39.12 88.3154 37.2509 81.5331 36.4599L78.7914 36.2127C77.318 36.111 75.7662 36.0533 74.1099 36.0533H71.3585C59.3706 36.0533 52.3683 38.8398 48.2646 42.1221C47.721 42.5608 46.472 43.6479 45.8241 44.487C42.554 48.3749 42.4688 52.2092 42.4688 52.5333C42.4688 54.9284 44.0205 56.9472 46.1653 57.6984C45.5696 58.576 45.2202 59.6348 45.2202 60.7733C45.2202 62.2373 45.8048 63.5598 46.7431 64.5459C44.198 65.9508 42.4688 68.6563 42.4688 71.76C42.4688 76.3044 46.1708 80 50.723 80H91.994H94.7454C96.0844 80 99.1861 79.4507 100.881 77.2533C101.595 76.4595 102.155 75.5312 102.518 74.5067C102.865 73.7032 102.984 72.3408 103 71.76C103 70.7959 102.823 69.8744 102.518 69.0133C102.284 68.3952 101.628 66.9804 100.881 66.2667C100.265 65.5814 99.5397 64.995 98.7267 64.5459C99.6635 63.5598 100.248 62.2373 100.248 60.7733C100.248 59.7681 99.9565 58.8383 99.4833 58.0267C100.239 57.463 101.848 56.1246 102.235 55.28C102.708 54.4684 103 53.5386 103 52.5333C102.965 51.9728 102.822 50.6387 102.533 49.7867C102.086 48.2595 101.203 46.2778 99.4805 44.2933C98.838 43.6034 97.2666 42.042 96.1211 41.316ZM71.3585 38.8C45.5187 38.8 45.2202 52.396 45.2202 52.5333C45.2202 54.0481 46.4542 55.28 47.9716 55.28H50.723H94.7454H96.1211H97.4968C99.0142 55.28 100.248 54.0481 100.248 52.5333C100.241 51.9813 99.7708 38.8 74.1099 38.8H71.3585ZM47.9716 60.7733C47.9716 62.2881 49.2056 63.52 50.723 63.52H94.7454C96.2628 63.52 97.4968 62.2881 97.4968 60.7733C97.4968 59.2585 96.2628 58.0267 94.7454 58.0267H50.723C49.2056 58.0267 47.9716 59.2585 47.9716 60.7733ZM83.3587 72.8408L89.0032 66.2667H68.3044L83.3587 72.8408ZM91.994 77.2533H94.7454C97.7802 77.2533 100.248 74.7896 100.248 71.76C100.248 68.7304 97.7802 66.2667 94.7454 66.2667H92.6268L84.1208 76.1725L61.441 66.2667H50.723C47.6882 66.2667 45.2202 68.7304 45.2202 71.76C45.2202 74.7896 47.6882 77.2533 50.723 77.2533H91.994Z" fill="#FF9900"/>
<path d="M60.521 43.0398C60.521 43.7966 61.1345 44.4105 61.8913 44.4105C62.6481 44.4105 63.2616 43.7966 63.2616 43.0398C63.2616 42.283 62.6481 41.6691 61.8913 41.6691C61.1345 41.6691 60.521 42.283 60.521 43.0398Z" fill="#FF9900"/>
<path d="M66.0024 45.7812C66.0024 46.538 66.6159 47.1519 67.3727 47.1519C68.1295 47.1519 68.743 46.538 68.743 45.7812C68.743 45.0244 68.1295 44.4105 67.3727 44.4105C66.6159 44.4105 66.0024 45.0244 66.0024 45.7812Z" fill="#FF9900"/>
<path d="M71.4829 43.0398C71.4829 43.7966 72.0964 44.4105 72.8532 44.4105C73.61 44.4105 74.2235 43.7966 74.2235 43.0398C74.2235 42.283 73.61 41.6691 72.8532 41.6691C72.0964 41.6691 71.4829 42.283 71.4829 43.0398Z" fill="#FF9900"/>
<path d="M79.7056 47.1519C79.7056 47.9087 80.3191 48.5226 81.0759 48.5226C81.8326 48.5226 82.4461 47.9087 82.4461 47.1519C82.4461 46.3951 81.8326 45.7812 81.0759 45.7812C80.3191 45.7812 79.7056 46.3951 79.7056 47.1519Z" fill="#FF9900"/>
<path d="M86.5571 43.0398C86.5571 43.7966 87.1706 44.4105 87.9274 44.4105C88.6842 44.4105 89.2977 43.7966 89.2977 43.0398C89.2977 42.283 88.6842 41.6691 87.9274 41.6691C87.1706 41.6691 86.5571 42.283 86.5571 43.0398Z" fill="#FF9900"/>
<path d="M52.2998 48.5226C52.2998 49.2794 52.9133 49.8933 53.6701 49.8933C54.4269 49.8933 55.0404 49.2794 55.0404 48.5226C55.0404 47.7658 54.4269 47.1519 53.6701 47.1519C52.9133 47.1519 52.2998 47.7658 52.2998 48.5226Z" fill="#FF9900"/>
</svg>
