<svg width="546" height="288" viewBox="0 0 546 288" fill="none" xmlns="http://www.w3.org/2000/svg">
<rect width="546" height="2" rx="1" transform="matrix(1 0 0 -1 0 288)" fill="#FF9900"/>
<path opacity="0.08" d="M441.02 239.034L471.326 212.095L501.632 239.034V286.177H441.02V239.034Z" fill="#FF9900"/>
<path opacity="0.08" d="M501.631 257.891L519.815 241.728L537.998 257.891V286.177H501.631V257.891Z" fill="#FF9900"/>
<rect opacity="0.08" x="466.611" y="263.279" width="9.42857" height="9.42857" fill="#FF9900"/>
<rect opacity="0.08" x="450.447" y="263.279" width="9.42857" height="9.42857" fill="#FF9900"/>
<rect opacity="0.08" x="482.773" y="263.279" width="9.42857" height="9.42857" fill="#FF9900"/>
<rect opacity="0.08" x="515.102" y="263.279" width="9.42857" height="9.42857" fill="#FF9900"/>
<rect opacity="0.08" x="466.611" y="244.422" width="9.42857" height="9.42857" fill="#FF9900"/>
<path opacity="0.08" d="M357 239.034L387.306 212.095L417.612 239.034V286.177H357V239.034Z" fill="#FF9900"/>
<rect opacity="0.08" x="382.592" y="263.279" width="9.42857" height="9.42857" fill="#FF9900"/>
<rect opacity="0.08" x="366.428" y="263.279" width="9.42857" height="9.42857" fill="#FF9900"/>
<rect opacity="0.08" x="398.754" y="263.279" width="9.42857" height="9.42857" fill="#FF9900"/>
<rect opacity="0.08" x="382.592" y="244.422" width="9.42857" height="9.42857" fill="#FF9900"/>
<path opacity="0.08" d="M262 239.034L292.306 212.095L322.612 239.034V286.177H262V239.034Z" fill="#FF9900"/>
<rect opacity="0.08" x="287.592" y="263.279" width="9.42857" height="9.42857" fill="#FF9900"/>
<rect opacity="0.08" x="271.428" y="263.279" width="9.42857" height="9.42857" fill="#FF9900"/>
<rect opacity="0.08" x="303.754" y="263.279" width="9.42857" height="9.42857" fill="#FF9900"/>
<rect opacity="0.08" x="287.592" y="244.422" width="9.42857" height="9.42857" fill="#FF9900"/>
<path opacity="0.08" d="M142.02 239.034L172.326 212.095L202.632 239.034V286.177H142.02V239.034Z" fill="#FF9900"/>
<path opacity="0.08" d="M202.631 257.891L220.815 241.728L238.998 257.891V286.177H202.631V257.891Z" fill="#FF9900"/>
<rect opacity="0.08" x="167.611" y="263.279" width="9.42857" height="9.42857" fill="#FF9900"/>
<rect opacity="0.08" x="151.447" y="263.279" width="9.42857" height="9.42857" fill="#FF9900"/>
<rect opacity="0.08" x="183.773" y="263.279" width="9.42857" height="9.42857" fill="#FF9900"/>
<rect opacity="0.08" x="216.102" y="263.279" width="9.42857" height="9.42857" fill="#FF9900"/>
<rect opacity="0.08" x="167.611" y="244.422" width="9.42857" height="9.42857" fill="#FF9900"/>
<path opacity="0.08" d="M58 239.034L88.3061 212.095L118.612 239.034V286.177H58V239.034Z" fill="#FF9900"/>
<rect opacity="0.08" x="83.5918" y="263.279" width="9.42857" height="9.42857" fill="#FF9900"/>
<rect opacity="0.08" x="67.4277" y="263.279" width="9.42857" height="9.42857" fill="#FF9900"/>
<rect opacity="0.08" x="99.7539" y="263.279" width="9.42857" height="9.42857" fill="#FF9900"/>
<rect opacity="0.08" x="83.5918" y="244.422" width="9.42857" height="9.42857" fill="#FF9900"/>
<path opacity="0.4" fill-rule="evenodd" clip-rule="evenodd" d="M445.3 282.008C446.239 282.008 447 281.246 447 280.308C447 279.369 446.239 278.608 445.3 278.608C444.361 278.608 443.6 279.369 443.6 280.308C443.6 281.246 444.361 282.008 445.3 282.008ZM445.3 285.608C448.227 285.608 450.6 283.235 450.6 280.308C450.6 277.38 448.227 275.008 445.3 275.008C442.373 275.008 440 277.38 440 280.308C440 283.235 442.373 285.608 445.3 285.608Z" fill="#FF9900"/>
<path opacity="0.4" fill-rule="evenodd" clip-rule="evenodd" d="M412.599 282.008C413.538 282.008 414.299 281.246 414.299 280.308C414.299 279.369 413.538 278.608 412.599 278.608C411.66 278.608 410.899 279.369 410.899 280.308C410.899 281.246 411.66 282.008 412.599 282.008ZM412.599 285.608C415.526 285.608 417.899 283.235 417.899 280.308C417.899 277.38 415.526 275.008 412.599 275.008C409.672 275.008 407.299 277.38 407.299 280.308C407.299 283.235 409.672 285.608 412.599 285.608Z" fill="#FF9900"/>
<path fill-rule="evenodd" clip-rule="evenodd" d="M412.6 275.807C410.115 275.807 408.1 277.822 408.1 280.307C408.1 282.793 410.115 284.807 412.6 284.807C415.085 284.807 417.1 282.793 417.1 280.307C417.1 277.822 415.085 275.807 412.6 275.807ZM406.5 280.307C406.5 276.939 409.231 274.207 412.6 274.207C415.969 274.207 418.7 276.939 418.7 280.307C418.7 283.676 415.969 286.407 412.6 286.407C409.231 286.407 406.5 283.676 406.5 280.307Z" fill="#FF9900"/>
<path fill-rule="evenodd" clip-rule="evenodd" d="M412.601 279.507C412.159 279.507 411.801 279.866 411.801 280.307C411.801 280.749 412.159 281.107 412.601 281.107C413.043 281.107 413.401 280.749 413.401 280.307C413.401 279.866 413.043 279.507 412.601 279.507ZM410.201 280.307C410.201 278.982 411.276 277.907 412.601 277.907C413.927 277.907 415.001 278.982 415.001 280.307C415.001 281.633 413.927 282.707 412.601 282.707C411.276 282.707 410.201 281.633 410.201 280.307Z" fill="#FF9900"/>
<path fill-rule="evenodd" clip-rule="evenodd" d="M445.3 279.507C444.859 279.507 444.5 279.866 444.5 280.307C444.5 280.749 444.859 281.107 445.3 281.107C445.742 281.107 446.1 280.749 446.1 280.307C446.1 279.866 445.742 279.507 445.3 279.507ZM442.9 280.307C442.9 278.982 443.975 277.907 445.3 277.907C446.626 277.907 447.7 278.982 447.7 280.307C447.7 281.633 446.626 282.707 445.3 282.707C443.975 282.707 442.9 281.633 442.9 280.307Z" fill="#FF9900"/>
<path fill-rule="evenodd" clip-rule="evenodd" d="M445.299 275.807C442.814 275.807 440.799 277.822 440.799 280.307C440.799 282.793 442.814 284.807 445.299 284.807C447.785 284.807 449.799 282.793 449.799 280.307C449.799 277.822 447.785 275.807 445.299 275.807ZM439.199 280.307C439.199 276.939 441.93 274.207 445.299 274.207C448.668 274.207 451.399 276.939 451.399 280.307C451.399 283.676 448.668 286.407 445.299 286.407C441.93 286.407 439.199 283.676 439.199 280.307Z" fill="#FF9900"/>
<path opacity="0.16" d="M410.854 261.739C411.116 260.664 412.079 259.908 413.186 259.908H438.401C439.319 259.908 440.156 260.431 440.558 261.255L443.901 268.108H409.301L410.854 261.739Z" fill="#FF9900"/>
<path fill-rule="evenodd" clip-rule="evenodd" d="M410.076 261.549C410.426 260.116 411.71 259.107 413.185 259.107H438.4C439.624 259.107 440.74 259.805 441.276 260.905L445.18 268.907H408.281L410.076 261.549ZM413.185 260.707C412.447 260.707 411.805 261.212 411.63 261.928L410.318 267.307H442.619L439.838 261.606C439.57 261.056 439.012 260.707 438.4 260.707H413.185Z" fill="#FF9900"/>
<path fill-rule="evenodd" clip-rule="evenodd" d="M427.399 259.908L427.399 267.708L425.799 267.708L425.799 259.908L427.399 259.908Z" fill="#FF9900"/>
<path fill-rule="evenodd" clip-rule="evenodd" d="M399 271.307C399 269.098 400.791 267.307 403 267.307H456C458.209 267.307 460 269.098 460 271.307V274.707C460 278.242 457.135 281.107 453.6 281.107H450.6V279.507H453.6C456.251 279.507 458.4 277.358 458.4 274.707V271.307C458.4 269.982 457.325 268.907 456 268.907H403C401.675 268.907 400.6 269.982 400.6 271.307V274.707C400.6 277.358 402.749 279.507 405.4 279.507H407.35V281.107H405.4C401.865 281.107 399 278.242 399 274.707V271.307ZM417.95 279.507H440.05V281.107H417.95V279.507Z" fill="#FF9900"/>
<path fill-rule="evenodd" clip-rule="evenodd" d="M427.073 267.137L430.67 280.564L429.125 280.978L425.527 267.551L427.073 267.137Z" fill="#FF9900"/>
<path fill-rule="evenodd" clip-rule="evenodd" d="M430.5 271.608C430.5 271.166 430.858 270.808 431.3 270.808H433.3C433.742 270.808 434.1 271.166 434.1 271.608C434.1 272.049 433.742 272.408 433.3 272.408H431.3C430.858 272.408 430.5 272.049 430.5 271.608Z" fill="#FF9900"/>
<path opacity="0.4" d="M402.649 275.007H399.799V271.507H402.649C403.615 271.507 404.399 272.291 404.399 273.257C404.399 274.224 403.615 275.007 402.649 275.007Z" fill="#FF9900"/>
<path fill-rule="evenodd" clip-rule="evenodd" d="M399.799 270.708H402.649C404.057 270.708 405.199 271.849 405.199 273.258C405.199 274.666 404.057 275.808 402.649 275.808H399.799V274.208H402.649C403.173 274.208 403.599 273.782 403.599 273.258C403.599 272.733 403.173 272.308 402.649 272.308H399.799V270.708Z" fill="#FF9900"/>
<path opacity="0.4" d="M456.351 275.007H459.201V271.507H456.351C455.385 271.507 454.601 272.291 454.601 273.257C454.601 274.224 455.385 275.007 456.351 275.007Z" fill="#FF9900"/>
<path fill-rule="evenodd" clip-rule="evenodd" d="M459.201 270.708H456.351C454.943 270.708 453.801 271.849 453.801 273.258C453.801 274.666 454.943 275.808 456.351 275.808H459.201V274.208H456.351C455.827 274.208 455.401 273.782 455.401 273.258C455.401 272.733 455.827 272.308 456.351 272.308H459.201V270.708Z" fill="#FF9900"/>
<path fill-rule="evenodd" clip-rule="evenodd" d="M434.1 255.108L434.1 259.908L432.5 259.908L432.5 255.108L434.1 255.108Z" fill="#FF9900"/>
<path fill-rule="evenodd" clip-rule="evenodd" d="M418.7 255.108L418.7 259.908L417.1 259.908L417.1 255.108L418.7 255.108Z" fill="#FF9900"/>
<path fill-rule="evenodd" clip-rule="evenodd" d="M431.91 235.062C432.946 234.251 434.483 234.412 435.272 235.527C439.001 240.796 441.147 247.022 441.459 253.469C441.525 254.834 440.414 255.908 439.099 255.908H412.239C409.957 255.908 408.963 253.024 410.759 251.618L431.91 235.062ZM433.966 236.451C433.734 236.123 433.253 236.043 432.897 236.322L411.746 252.878C411.147 253.346 411.478 254.308 412.239 254.308H439.099C439.551 254.308 439.88 253.947 439.861 253.547C439.564 247.403 437.518 241.472 433.966 236.451Z" fill="#FF9900"/>
<path fill-rule="evenodd" clip-rule="evenodd" d="M431.913 236.448C435.365 242.139 437.478 248.55 438.083 255.19L436.489 255.335C435.907 248.937 433.871 242.761 430.545 237.277L431.913 236.448Z" fill="#FF9900"/>
<path opacity="0.4" d="M431.971 238.134C434.641 242.896 436.381 248.128 437.095 253.547C437.217 254.47 438.07 255.128 438.981 254.934C439.083 254.912 439.188 254.889 439.294 254.866C439.959 254.72 440.448 254.154 440.47 253.474C440.696 246.501 437.216 239.703 434.758 236.174C434.27 235.475 433.309 235.351 432.619 235.852L432.42 235.997C431.747 236.486 431.564 237.408 431.971 238.134Z" fill="#FF9900"/>
<path fill-rule="evenodd" clip-rule="evenodd" d="M428.463 251.062C426.254 251.062 424.463 252.853 424.463 255.062H422.863C422.863 251.97 425.37 249.462 428.463 249.462C431.556 249.462 434.063 251.97 434.063 255.062H432.463C432.463 252.853 430.672 251.062 428.463 251.062Z" fill="#FF9900"/>
<path opacity="0.4" d="M428.464 250.262C425.813 250.262 423.664 252.411 423.664 255.062H433.264C433.264 252.411 431.115 250.262 428.464 250.262Z" fill="#FF9900"/>
<path fill-rule="evenodd" clip-rule="evenodd" d="M429.064 241.662C429.064 240.802 428.662 240.036 428.034 239.541L429.024 238.284C430.021 239.07 430.664 240.292 430.664 241.662C430.664 244.037 428.739 245.962 426.364 245.962C424.599 245.962 423.085 244.9 422.422 243.383L423.888 242.742C424.305 243.697 425.258 244.362 426.364 244.362C427.855 244.362 429.064 243.154 429.064 241.662Z" fill="#FF9900"/>
<path opacity="0.4" d="M426.363 245.162C428.296 245.162 429.863 243.595 429.863 241.662C429.863 240.547 429.341 239.553 428.528 238.912L423.154 243.062C423.694 244.299 424.928 245.162 426.363 245.162Z" fill="#FF9900"/>
<path opacity="0.4" d="M421.065 250.962C421.065 251.846 420.349 252.562 419.465 252.562C418.582 252.562 417.865 251.846 417.865 250.962C417.865 250.079 418.582 249.362 419.465 249.362C420.349 249.362 421.065 250.079 421.065 250.962Z" fill="#FF9900"/>
<path fill-rule="evenodd" clip-rule="evenodd" d="M419.464 250.162C419.023 250.162 418.664 250.521 418.664 250.962C418.664 251.404 419.023 251.762 419.464 251.762C419.906 251.762 420.264 251.404 420.264 250.962C420.264 250.521 419.906 250.162 419.464 250.162ZM417.064 250.962C417.064 249.637 418.139 248.562 419.464 248.562C420.79 248.562 421.864 249.637 421.864 250.962C421.864 252.288 420.79 253.362 419.464 253.362C418.139 253.362 417.064 252.288 417.064 250.962Z" fill="#FF9900"/>
<path opacity="0.4" fill-rule="evenodd" clip-rule="evenodd" d="M160.8 282.07C159.855 282.07 159.089 281.304 159.089 280.359C159.089 279.413 159.855 278.647 160.8 278.647C161.746 278.647 162.512 279.413 162.512 280.359C162.512 281.304 161.746 282.07 160.8 282.07ZM160.8 285.695C157.853 285.695 155.464 283.306 155.464 280.359C155.464 277.412 157.853 275.022 160.8 275.022C163.748 275.022 166.137 277.412 166.137 280.359C166.137 283.306 163.748 285.695 160.8 285.695Z" fill="#FF9900"/>
<path opacity="0.4" fill-rule="evenodd" clip-rule="evenodd" d="M193.726 282.07C192.781 282.07 192.015 281.304 192.015 280.359C192.015 279.413 192.781 278.647 193.726 278.647C194.672 278.647 195.438 279.413 195.438 280.359C195.438 281.304 194.672 282.07 193.726 282.07ZM193.726 285.695C190.779 285.695 188.39 283.306 188.39 280.359C188.39 277.412 190.779 275.022 193.726 275.022C196.673 275.022 199.062 277.412 199.062 280.359C199.062 283.306 196.673 285.695 193.726 285.695Z" fill="#FF9900"/>
<path fill-rule="evenodd" clip-rule="evenodd" d="M193.725 275.828C196.228 275.828 198.256 277.856 198.256 280.359C198.256 282.861 196.228 284.89 193.725 284.89C191.223 284.89 189.195 282.861 189.195 280.359C189.195 277.856 191.223 275.828 193.725 275.828ZM199.867 280.359C199.867 276.967 197.117 274.217 193.725 274.217C190.333 274.217 187.584 276.967 187.584 280.359C187.584 283.751 190.333 286.501 193.725 286.501C197.117 286.501 199.867 283.751 199.867 280.359Z" fill="#FF9900"/>
<path fill-rule="evenodd" clip-rule="evenodd" d="M193.724 279.553C194.169 279.553 194.53 279.914 194.53 280.359C194.53 280.804 194.169 281.164 193.724 281.164C193.279 281.164 192.919 280.804 192.919 280.359C192.919 279.914 193.279 279.553 193.724 279.553ZM196.141 280.359C196.141 279.024 195.059 277.942 193.724 277.942C192.39 277.942 191.308 279.024 191.308 280.359C191.308 281.693 192.39 282.775 193.724 282.775C195.059 282.775 196.141 281.693 196.141 280.359Z" fill="#FF9900"/>
<path fill-rule="evenodd" clip-rule="evenodd" d="M160.8 279.553C161.245 279.553 161.606 279.914 161.606 280.359C161.606 280.804 161.245 281.164 160.8 281.164C160.355 281.164 159.995 280.804 159.995 280.359C159.995 279.914 160.355 279.553 160.8 279.553ZM163.217 280.359C163.217 279.024 162.135 277.942 160.8 277.942C159.466 277.942 158.384 279.024 158.384 280.359C158.384 281.693 159.466 282.775 160.8 282.775C162.135 282.775 163.217 281.693 163.217 280.359Z" fill="#FF9900"/>
<path fill-rule="evenodd" clip-rule="evenodd" d="M160.8 275.828C163.302 275.828 165.33 277.856 165.33 280.359C165.33 282.861 163.302 284.89 160.8 284.89C158.297 284.89 156.269 282.861 156.269 280.359C156.269 277.856 158.297 275.828 160.8 275.828ZM166.941 280.359C166.941 276.967 164.192 274.217 160.8 274.217C157.408 274.217 154.658 276.967 154.658 280.359C154.658 283.751 157.408 286.501 160.8 286.501C164.192 286.501 166.941 283.751 166.941 280.359Z" fill="#FF9900"/>
<path opacity="0.16" d="M195.483 261.663C195.219 260.581 194.249 259.819 193.135 259.819H167.747C166.823 259.819 165.98 260.346 165.575 261.176L162.21 268.075H197.047L195.483 261.663Z" fill="#FF9900"/>
<path fill-rule="evenodd" clip-rule="evenodd" d="M196.267 261.472C195.915 260.029 194.622 259.013 193.137 259.013H167.749C166.517 259.013 165.393 259.716 164.853 260.823L160.922 268.881H198.074L196.267 261.472ZM193.137 260.624C193.88 260.624 194.526 261.132 194.702 261.854L196.023 267.27H163.501L166.301 261.529C166.571 260.976 167.133 260.624 167.749 260.624H193.137Z" fill="#FF9900"/>
<path fill-rule="evenodd" clip-rule="evenodd" d="M178.825 259.819L178.724 267.672L180.335 267.672L180.436 259.819L178.825 259.819Z" fill="#FF9900"/>
<path fill-rule="evenodd" clip-rule="evenodd" d="M207.418 271.297C207.418 269.073 205.615 267.27 203.391 267.27H150.027C147.803 267.27 146 269.073 146 271.297V274.72C146 278.279 148.885 281.164 152.444 281.164H155.464V279.553H152.444C149.775 279.553 147.611 277.389 147.611 274.72V271.297C147.611 269.962 148.693 268.881 150.027 268.881H203.391C204.725 268.881 205.807 269.962 205.807 271.297V274.72C205.807 277.389 203.643 279.553 200.974 279.553H199.011V281.164H200.974C204.533 281.164 207.418 278.279 207.418 274.72V271.297ZM188.338 279.553H166.087V281.164H188.338V279.553Z" fill="#FF9900"/>
<path fill-rule="evenodd" clip-rule="evenodd" d="M179.153 267.098L175.531 280.617L177.087 281.034L180.709 267.515L179.153 267.098Z" fill="#FF9900"/>
<path fill-rule="evenodd" clip-rule="evenodd" d="M175.701 271.599C175.701 271.154 175.341 270.794 174.896 270.794H172.882C172.437 270.794 172.077 271.154 172.077 271.599C172.077 272.044 172.437 272.405 172.882 272.405H174.896C175.341 272.405 175.701 272.044 175.701 271.599Z" fill="#FF9900"/>
<path opacity="0.4" d="M203.742 275.022H206.611V271.498H203.742C202.769 271.498 201.98 272.287 201.98 273.26C201.98 274.234 202.769 275.022 203.742 275.022Z" fill="#FF9900"/>
<path fill-rule="evenodd" clip-rule="evenodd" d="M206.611 270.693H203.742C202.324 270.693 201.174 271.842 201.174 273.26C201.174 274.678 202.324 275.828 203.742 275.828H206.611V274.217H203.742C203.214 274.217 202.785 273.789 202.785 273.26C202.785 272.732 203.214 272.304 203.742 272.304H206.611V270.693Z" fill="#FF9900"/>
<path opacity="0.4" d="M149.676 275.022H146.807V271.498H149.676C150.649 271.498 151.438 272.287 151.438 273.26C151.438 274.234 150.649 275.022 149.676 275.022Z" fill="#FF9900"/>
<path fill-rule="evenodd" clip-rule="evenodd" d="M146.807 270.693H149.676C151.094 270.693 152.244 271.842 152.244 273.26C152.244 274.678 151.094 275.828 149.676 275.828H146.807V274.217H149.676C150.204 274.217 150.633 273.789 150.633 273.26C150.633 272.732 150.204 272.304 149.676 272.304H146.807V270.693Z" fill="#FF9900"/>
<path fill-rule="evenodd" clip-rule="evenodd" d="M172.078 254.986L171.978 259.819L173.589 259.819L173.689 254.986L172.078 254.986Z" fill="#FF9900"/>
<path fill-rule="evenodd" clip-rule="evenodd" d="M187.582 254.986L187.482 259.819L189.093 259.819L189.193 254.986L187.582 254.986Z" fill="#FF9900"/>
<path fill-rule="evenodd" clip-rule="evenodd" d="M196.443 251.714C196.443 250.379 195.361 249.297 194.027 249.297H167.043C165.709 249.297 164.627 250.379 164.627 251.714C164.627 253.938 166.43 255.741 168.654 255.741H192.416C194.64 255.741 196.443 253.938 196.443 251.714ZM194.027 250.908C194.472 250.908 194.832 251.269 194.832 251.714C194.832 253.048 193.751 254.13 192.416 254.13H168.654C167.32 254.13 166.238 253.048 166.238 251.714C166.238 251.269 166.598 250.908 167.043 250.908H194.027Z" fill="#FF9900"/>
<path opacity="0.4" d="M196.846 247.888C196.846 246.664 195.854 245.673 194.631 245.673H166.439C165.215 245.673 164.224 246.664 164.224 247.888C164.224 249.111 165.215 250.103 166.439 250.103H194.631C195.854 250.103 196.846 249.111 196.846 247.888Z" fill="#FF9900"/>
<path fill-rule="evenodd" clip-rule="evenodd" d="M197.65 247.888C197.65 246.219 196.298 244.867 194.63 244.867H166.438C164.77 244.867 163.417 246.219 163.417 247.888C163.417 249.556 164.77 250.908 166.438 250.908H194.63C196.298 250.908 197.65 249.556 197.65 247.888ZM194.63 246.478C195.408 246.478 196.039 247.109 196.039 247.888C196.039 248.666 195.408 249.297 194.63 249.297H166.438C165.659 249.297 165.028 248.666 165.028 247.888C165.028 247.109 165.659 246.478 166.438 246.478H194.63Z" fill="#FF9900"/>
<path opacity="0.4" d="M193.725 244.162C193.725 243.328 193.048 242.652 192.214 242.652H168.855C168.021 242.652 167.345 243.328 167.345 244.162C167.345 244.996 168.021 245.673 168.855 245.673H192.214C193.048 245.673 193.725 244.996 193.725 244.162Z" fill="#FF9900"/>
<path fill-rule="evenodd" clip-rule="evenodd" d="M194.529 244.162C194.529 242.883 193.492 241.847 192.214 241.847H168.855C167.576 241.847 166.539 242.883 166.539 244.162C166.539 245.441 167.576 246.478 168.855 246.478H192.214C193.492 246.478 194.529 245.441 194.529 244.162ZM192.214 243.458C192.603 243.458 192.918 243.773 192.918 244.162C192.918 244.552 192.603 244.867 192.214 244.867H168.855C168.465 244.867 168.15 244.552 168.15 244.162C168.15 243.773 168.465 243.458 168.855 243.458H192.214Z" fill="#FF9900"/>
<path fill-rule="evenodd" clip-rule="evenodd" d="M164.625 242.093C164.625 242.847 165.236 243.458 165.989 243.458L195.077 243.458C195.831 243.458 196.442 242.847 196.442 242.093C196.442 238.176 193.266 235 189.348 235L171.718 235C167.801 235 164.625 238.176 164.625 242.093ZM166.241 241.847C166.37 238.933 168.773 236.611 171.718 236.611L189.348 236.611C192.293 236.611 194.696 238.933 194.825 241.847L166.241 241.847Z" fill="#FF9900"/>
<path d="M187.786 238.725C187.786 239.17 188.146 239.531 188.591 239.531C189.036 239.531 189.396 239.17 189.396 238.725C189.396 238.28 189.036 237.92 188.591 237.92C188.146 237.92 187.786 238.28 187.786 238.725Z" fill="#FF9900"/>
<path d="M181.844 239.531C181.844 239.976 182.205 240.336 182.65 240.336C183.094 240.336 183.455 239.976 183.455 239.531C183.455 239.086 183.094 238.725 182.65 238.725C182.205 238.725 181.844 239.086 181.844 239.531Z" fill="#FF9900"/>
<path d="M176.106 238.222C176.106 238.667 176.466 239.027 176.911 239.027C177.356 239.027 177.717 238.667 177.717 238.222C177.717 237.777 177.356 237.416 176.911 237.416C176.466 237.416 176.106 237.777 176.106 238.222Z" fill="#FF9900"/>
<path d="M171.776 239.531C171.776 239.976 172.136 240.336 172.581 240.336C173.026 240.336 173.387 239.976 173.387 239.531C173.387 239.086 173.026 238.725 172.581 238.725C172.136 238.725 171.776 239.086 171.776 239.531Z" fill="#FF9900"/>
<path fill-rule="evenodd" clip-rule="evenodd" d="M272.403 4.16C260.283 4.16098 250.167 6.49223 241.966 11.0483L241.945 11.0601C233.692 15.514 227.45 21.5735 223.159 29.2441C218.975 36.8284 216.597 45.5635 216.065 55.4926C215.794 63.0844 215.659 69.7861 215.659 75.6C215.659 81.2778 215.794 87.7757 216.065 95.0957C216.863 110.732 221.946 123.227 231.204 132.749C240.366 142.037 253.986 146.904 272.411 147.04C290.836 146.904 304.456 142.037 313.618 132.749C322.879 123.224 328.029 110.725 328.961 95.0875C329.232 87.7708 329.367 81.2757 329.367 75.6C329.367 69.7861 329.232 63.0845 328.961 55.4928C328.164 40.1512 322.96 27.8672 313.438 18.4759C303.988 9.155 290.409 4.29465 272.403 4.16ZM240.034 7.54579C248.965 2.58681 259.788 0.160004 272.411 0.160004L272.426 0.160057C291.136 0.298653 305.843 5.36625 316.247 15.6281C326.579 25.8179 332.118 39.0971 332.956 55.3007L332.958 55.3326C333.23 62.9657 333.367 69.7224 333.367 75.6C333.367 81.3425 333.23 87.8959 332.957 95.258C332.957 95.2728 332.956 95.2877 332.955 95.3024C331.98 111.748 326.524 125.216 316.481 135.542L316.471 135.552C306.323 145.843 291.525 150.902 272.425 151.04H272.396C253.296 150.902 238.498 145.843 228.351 135.552L228.341 135.542C218.293 125.211 212.906 111.736 212.069 95.2856L212.068 95.258C211.795 87.8959 211.659 81.3425 211.659 75.6C211.659 69.7224 211.795 62.9657 212.068 55.3326C212.068 55.3209 212.069 55.3092 212.07 55.2975C212.628 44.8366 215.143 35.4915 219.66 27.3059L219.665 27.2957C224.348 18.9237 231.158 12.3386 240.034 7.54579ZM132.897 8.90074L73.5864 89.2041C72.266 91.1332 71.7129 92.8438 71.7129 94.368V113.748C71.7129 114.778 72.0215 115.472 72.5551 116.006C73.0887 116.539 73.7827 116.848 74.8129 116.848H138.257C139.361 116.848 140.257 117.743 140.257 118.848V141.9C140.257 142.705 140.511 143.437 141.104 144.153C141.819 144.746 142.552 145 143.357 145H168.653C169.654 145 170.338 144.709 170.865 144.203C171.487 143.471 171.753 142.724 171.753 141.9V118.848C171.753 117.743 172.648 116.848 173.753 116.848H191.909C192.939 116.848 193.633 116.539 194.167 116.006C194.7 115.472 195.009 114.778 195.009 113.748V93.552C195.009 92.7164 194.739 92.0709 194.167 91.4982C194.135 91.4668 194.105 91.4344 194.076 91.401C193.555 90.8057 192.843 90.452 191.705 90.452H173.753C172.648 90.452 171.753 89.5566 171.753 88.452V9.30001C171.753 8.26984 171.444 7.57581 170.911 7.04223L172.325 5.62801L170.911 7.04221C170.377 6.50863 169.683 6.2 168.653 6.2H138.869C136.326 6.2 134.397 7.09894 132.897 8.90074ZM129.777 6.39659C132.08 3.6002 135.174 2.2 138.869 2.2H168.653C170.615 2.2 172.369 2.84338 173.739 4.2138C175.11 5.58419 175.753 7.33817 175.753 9.30001V86.452H191.705C193.808 86.452 195.663 87.1707 197.042 88.7167C198.342 90.0402 199.009 91.6897 199.009 93.552V113.748C199.009 115.71 198.366 117.464 196.995 118.834C195.625 120.205 193.871 120.848 191.909 120.848H175.753V141.9C175.753 143.777 175.079 145.461 173.83 146.889C173.801 146.922 173.77 146.955 173.739 146.986C172.369 148.357 170.615 149 168.653 149H143.357C141.48 149 139.795 148.326 138.368 147.077C138.301 147.019 138.238 146.956 138.18 146.889C136.931 145.461 136.257 143.777 136.257 141.9V120.848H74.8129C72.8511 120.848 71.0971 120.205 69.7267 118.834C68.3563 117.464 67.7129 115.71 67.7129 113.748V94.368C67.7129 91.8194 68.6506 89.3228 70.3088 86.9109C70.3216 86.8923 70.3347 86.874 70.3481 86.8558L129.712 6.4798C129.733 6.4515 129.755 6.42375 129.777 6.39659ZM410.807 8.90083L351.497 89.2041C350.176 91.1332 349.623 92.8438 349.623 94.368V113.748C349.623 114.778 349.932 115.472 350.465 116.006C350.999 116.539 351.693 116.848 352.723 116.848H416.167C417.272 116.848 418.167 117.743 418.167 118.848V141.9C418.167 142.705 418.421 143.437 419.014 144.153C419.73 144.746 420.462 145 421.267 145H446.563C447.564 145 448.248 144.709 448.775 144.203C449.398 143.471 449.663 142.724 449.663 141.9V118.848C449.663 117.743 450.558 116.848 451.663 116.848H469.819C470.849 116.848 471.543 116.539 472.077 116.006C472.61 115.472 472.919 114.778 472.919 113.748V93.552C472.919 92.7164 472.65 92.0709 472.077 91.4982C472.045 91.4668 472.015 91.4344 471.986 91.401C471.465 90.8057 470.753 90.452 469.615 90.452H451.663C450.558 90.452 449.663 89.5566 449.663 88.452V9.30001C449.663 8.26984 449.354 7.57581 448.821 7.04221C448.287 6.50863 447.593 6.2 446.563 6.2H416.779C414.236 6.2 412.307 7.09897 410.807 8.90083ZM407.687 6.39659C409.99 3.6002 413.084 2.2 416.779 2.2H446.563C448.525 2.2 450.279 2.84338 451.649 4.2138C453.02 5.58419 453.663 7.33817 453.663 9.30001V86.452H469.615C471.718 86.452 473.573 87.1707 474.952 88.7166C476.252 90.0401 476.919 91.6896 476.919 93.552V113.748C476.919 115.71 476.276 117.464 474.905 118.834C473.535 120.205 471.781 120.848 469.819 120.848H453.663V141.9C453.663 143.777 452.989 145.461 451.74 146.889C451.711 146.922 451.681 146.955 451.649 146.986C450.279 148.357 448.525 149 446.563 149H421.267C419.39 149 417.706 148.326 416.278 147.077C416.244 147.048 416.212 147.017 416.18 146.986C416.149 146.955 416.119 146.922 416.09 146.889C414.841 145.461 414.167 143.777 414.167 141.9V120.848H352.723C350.761 120.848 349.007 120.205 347.637 118.834C346.266 117.464 345.623 115.71 345.623 113.748V94.368C345.623 91.8194 346.561 89.3228 348.219 86.9109C348.232 86.8923 348.245 86.874 348.258 86.8558L407.622 6.4798C407.643 6.4515 407.665 6.42375 407.687 6.39659ZM272.451 29.3324C279.719 29.4778 285.409 31.9826 289.124 37.0917C292.693 41.9991 294.523 48.5392 294.808 56.5192C295.084 60.2764 295.219 66.5168 295.219 75.192C295.219 83.876 295.084 90.2472 294.808 94.267C294.524 102.516 292.628 109.212 288.9 114.135C285.173 119.103 279.545 121.46 272.411 121.46C265.476 121.46 259.918 119.171 256.064 114.392C252.282 109.701 250.361 102.882 250.012 94.2446L250.012 94.2329C249.875 90.2519 249.807 83.8984 249.807 75.192C249.807 66.4877 249.875 60.267 250.012 56.5543C250.293 48.5584 252.123 42.0062 255.697 37.0917C255.705 37.0811 255.713 37.0707 255.721 37.0603C259.56 31.9925 265.22 29.4783 272.37 29.3324C272.397 29.3319 272.424 29.3319 272.451 29.3324ZM250.012 56.5543C250.012 56.5542 250.012 56.5541 250.012 56.554L252.011 56.628L250.012 56.5579C250.012 56.5567 250.012 56.5555 250.012 56.5543ZM272.411 33.3324C266.262 33.4667 261.875 35.5706 258.921 39.4605C255.975 43.5201 254.273 49.2016 254.01 56.6981L254.009 56.702C253.875 60.3334 253.807 66.4885 253.807 75.192C253.807 83.8881 253.875 90.1802 254.009 94.0878C254.342 102.312 256.161 108.139 259.178 111.881C262.123 115.533 266.426 117.46 272.411 117.46C278.603 117.46 282.902 115.466 285.703 111.732L285.709 111.724C288.774 107.679 290.548 101.877 290.812 94.0963C290.813 94.073 290.814 94.0497 290.816 94.0264C291.082 90.1562 291.219 83.8911 291.219 75.192C291.219 66.4892 291.082 60.3668 290.816 56.7758C290.816 56.7658 290.815 56.7559 290.814 56.7459C290.813 56.73 290.813 56.7141 290.812 56.6981C290.549 49.1917 288.843 43.505 285.889 39.4443C283.083 35.5856 278.721 33.4672 272.411 33.3324ZM139.682 39.8309C140.51 40.0958 141.073 40.866 141.073 41.736V89.88C141.073 90.9846 140.177 91.88 139.073 91.88H104.801C104.052 91.88 103.366 91.462 103.023 90.7966C102.68 90.1313 102.737 89.33 103.172 88.7202L137.444 40.5761C137.948 39.8674 138.853 39.5661 139.682 39.8309ZM417.592 39.8309C418.421 40.0958 418.983 40.866 418.983 41.736V89.88C418.983 90.9846 418.088 91.88 416.983 91.88H382.711C381.962 91.88 381.277 91.462 380.933 90.7966C380.59 90.1313 380.648 89.33 381.082 88.7202L415.354 40.5761C415.858 39.8674 416.763 39.5661 417.592 39.8309ZM108.68 87.88H137.073V47.9942L108.68 87.88ZM386.59 87.88H414.983V47.9942L386.59 87.88Z" fill="#FF9900"/>
</svg>
