<svg width="273" height="90" viewBox="0 0 273 90" fill="none" xmlns="http://www.w3.org/2000/svg">
<rect width="272" height="2" rx="1" transform="matrix(1 0 0 -1 1 90)" fill="#FF9900"/>
<path opacity="0.08" d="M170.021 41.0338L200.327 14.095L230.633 41.0338V88.1767H170.021V41.0338Z" fill="#FF9900"/>
<path opacity="0.08" d="M230.633 59.8909L248.816 43.7277L267 59.8909V88.1767H230.633V59.8909Z" fill="#FF9900"/>
<rect opacity="0.08" x="195.611" y="65.2787" width="9.42857" height="9.42857" fill="#FF9900"/>
<rect opacity="0.08" x="179.448" y="65.2787" width="9.42857" height="9.42857" fill="#FF9900"/>
<rect opacity="0.08" x="211.775" y="65.2787" width="9.42857" height="9.42857" fill="#FF9900"/>
<rect opacity="0.08" x="244.103" y="65.2787" width="9.42857" height="9.42857" fill="#FF9900"/>
<rect opacity="0.08" x="195.611" y="46.4216" width="9.42857" height="9.42857" fill="#FF9900"/>
<path opacity="0.08" d="M86 41.0338L116.306 14.095L146.612 41.0338V88.1767H86V41.0338Z" fill="#FF9900"/>
<rect opacity="0.08" x="111.591" y="65.2787" width="9.42857" height="9.42857" fill="#FF9900"/>
<rect opacity="0.08" x="95.4277" y="65.2787" width="9.42857" height="9.42857" fill="#FF9900"/>
<rect opacity="0.08" x="127.755" y="65.2787" width="9.42857" height="9.42857" fill="#FF9900"/>
<rect opacity="0.08" x="111.591" y="46.4216" width="9.42857" height="9.42857" fill="#FF9900"/>
<path opacity="0.4" fill-rule="evenodd" clip-rule="evenodd" d="M78.9374 80.9059C80.5382 80.9059 81.8358 79.6082 81.8358 78.0075C81.8358 76.4068 80.5382 75.1092 78.9374 75.1092C77.3367 75.1092 76.0391 76.4068 76.0391 78.0075C76.0391 79.6082 77.3367 80.9059 78.9374 80.9059ZM78.9374 87.0436C83.9279 87.0436 87.9735 82.998 87.9735 78.0075C87.9735 73.017 83.9279 68.9715 78.9374 68.9715C73.947 68.9715 69.9014 73.017 69.9014 78.0075C69.9014 82.998 73.947 87.0436 78.9374 87.0436Z" fill="#FF9900"/>
<path opacity="0.4" fill-rule="evenodd" clip-rule="evenodd" d="M23.1865 80.9059C24.7872 80.9059 26.0848 79.6082 26.0848 78.0075C26.0848 76.4068 24.7872 75.1092 23.1865 75.1092C21.5857 75.1092 20.2881 76.4068 20.2881 78.0075C20.2881 79.6082 21.5857 80.9059 23.1865 80.9059ZM23.1865 87.0436C28.1769 87.0436 32.2225 82.998 32.2225 78.0075C32.2225 73.017 28.1769 68.9715 23.1865 68.9715C18.196 68.9715 14.1504 73.017 14.1504 78.0075C14.1504 82.998 18.196 87.0436 23.1865 87.0436Z" fill="#FF9900"/>
<path fill-rule="evenodd" clip-rule="evenodd" d="M23.1861 70.3354C18.9489 70.3354 15.514 73.7703 15.514 78.0075C15.514 82.2447 18.9489 85.6797 23.1861 85.6797C27.4233 85.6797 30.8583 82.2447 30.8583 78.0075C30.8583 73.7703 27.4233 70.3354 23.1861 70.3354ZM12.7861 78.0075C12.7861 72.2638 17.4424 67.6075 23.1861 67.6075C28.9299 67.6075 33.5861 72.2638 33.5861 78.0075C33.5861 83.7513 28.9299 88.4075 23.1861 88.4075C17.4424 88.4075 12.7861 83.7513 12.7861 78.0075Z" fill="#FF9900"/>
<path fill-rule="evenodd" clip-rule="evenodd" d="M23.1865 76.6436C22.4332 76.6436 21.8226 77.2542 21.8226 78.0075C21.8226 78.7608 22.4332 79.3715 23.1865 79.3715C23.9398 79.3715 24.5505 78.7608 24.5505 78.0075C24.5505 77.2542 23.9398 76.6436 23.1865 76.6436ZM19.0947 78.0075C19.0947 75.7477 20.9267 73.9157 23.1865 73.9157C25.4464 73.9157 27.2783 75.7477 27.2783 78.0075C27.2783 80.2674 25.4464 82.0993 23.1865 82.0993C20.9267 82.0993 19.0947 80.2674 19.0947 78.0075Z" fill="#FF9900"/>
<path fill-rule="evenodd" clip-rule="evenodd" d="M78.9375 76.6436C78.1842 76.6436 77.5736 77.2542 77.5736 78.0075C77.5736 78.7608 78.1842 79.3715 78.9375 79.3715C79.6908 79.3715 80.3014 78.7608 80.3014 78.0075C80.3014 77.2542 79.6908 76.6436 78.9375 76.6436ZM74.8457 78.0075C74.8457 75.7477 76.6777 73.9157 78.9375 73.9157C81.1973 73.9157 83.0293 75.7477 83.0293 78.0075C83.0293 80.2674 81.1973 82.0993 78.9375 82.0993C76.6777 82.0993 74.8457 80.2674 74.8457 78.0075Z" fill="#FF9900"/>
<path fill-rule="evenodd" clip-rule="evenodd" d="M78.9371 70.3354C74.6999 70.3354 71.265 73.7703 71.265 78.0075C71.265 82.2447 74.6999 85.6797 78.9371 85.6797C83.1743 85.6797 86.6092 82.2447 86.6092 78.0075C86.6092 73.7703 83.1743 70.3354 78.9371 70.3354ZM68.5371 78.0075C68.5371 72.2638 73.1933 67.6075 78.9371 67.6075C84.6809 67.6075 89.3371 72.2638 89.3371 78.0075C89.3371 83.7513 84.6809 88.4075 78.9371 88.4075C73.1933 88.4075 68.5371 83.7513 68.5371 78.0075Z" fill="#FF9900"/>
<path opacity="0.16" d="M20.2079 46.3494C20.6549 44.5168 22.2968 43.2272 24.1832 43.2272H67.1734C68.7377 43.2272 70.1651 44.1191 70.851 45.5251L76.5497 57.2075H17.5596L20.2079 46.3494Z" fill="#FF9900"/>
<path fill-rule="evenodd" clip-rule="evenodd" d="M18.8831 46.0262C19.479 43.5827 21.6683 41.8633 24.1834 41.8633H67.1736C69.2594 41.8633 71.1626 43.0525 72.0771 44.9271L78.7329 58.5715H15.8232L18.8831 46.0262ZM24.1834 44.5911C22.9258 44.5911 21.8312 45.4509 21.5332 46.6726L19.2964 55.8436H74.3671L69.6254 46.123C69.1681 45.1857 68.2165 44.5911 67.1736 44.5911H24.1834Z" fill="#FF9900"/>
<path fill-rule="evenodd" clip-rule="evenodd" d="M48.4193 43.2272L48.4193 56.5256L45.6914 56.5256L45.6914 43.2272L48.4193 43.2272Z" fill="#FF9900"/>
<path fill-rule="evenodd" clip-rule="evenodd" d="M0 62.6633C0 58.8969 3.05327 55.8436 6.81967 55.8436H97.1803C100.947 55.8436 104 58.8969 104 62.6633V68.46C104 74.4862 99.1148 79.3715 93.0885 79.3715H87.9738V76.6436H93.0885C97.6082 76.6436 101.272 72.9797 101.272 68.46V62.6633C101.272 60.4034 99.4402 58.5715 97.1803 58.5715H6.81967C4.55983 58.5715 2.72787 60.4034 2.72787 62.6633V68.46C2.72787 72.9797 6.39179 76.6436 10.9115 76.6436H14.2361V79.3715H10.9115C4.88523 79.3715 0 74.4862 0 68.46V62.6633ZM32.3082 76.6436H69.9869V79.3715H32.3082V76.6436Z" fill="#FF9900"/>
<path fill-rule="evenodd" clip-rule="evenodd" d="M47.8605 55.5534L53.9941 78.4442L51.3592 79.1502L45.2256 56.2594L47.8605 55.5534Z" fill="#FF9900"/>
<path fill-rule="evenodd" clip-rule="evenodd" d="M53.7051 63.1748C53.7051 62.4215 54.3157 61.8108 55.069 61.8108H58.4788C59.2321 61.8108 59.8428 62.4215 59.8428 63.1748C59.8428 63.928 59.2321 64.5387 58.4788 64.5387H55.069C54.3157 64.5387 53.7051 63.928 53.7051 63.1748Z" fill="#FF9900"/>
<path opacity="0.4" d="M6.2223 68.9715H1.36328V63.0042H6.2223C7.8701 63.0042 9.2059 64.34 9.2059 65.9878C9.2059 67.6356 7.8701 68.9715 6.2223 68.9715Z" fill="#FF9900"/>
<path fill-rule="evenodd" clip-rule="evenodd" d="M1.36328 61.6403H6.2223C8.62338 61.6403 10.5698 63.5868 10.5698 65.9879C10.5698 68.3889 8.62338 70.3354 6.2223 70.3354H1.36328V67.6075H6.2223C7.11682 67.6075 7.84197 66.8824 7.84197 65.9879C7.84197 65.0933 7.11682 64.3682 6.2223 64.3682H1.36328V61.6403Z" fill="#FF9900"/>
<path opacity="0.4" d="M97.7777 68.9715H102.637V63.0042H97.7777C96.1299 63.0042 94.7941 64.34 94.7941 65.9878C94.7941 67.6356 96.1299 68.9715 97.7777 68.9715Z" fill="#FF9900"/>
<path fill-rule="evenodd" clip-rule="evenodd" d="M102.637 61.6403H97.7777C95.3766 61.6403 93.4302 63.5868 93.4302 65.9879C93.4302 68.3889 95.3766 70.3354 97.7777 70.3354H102.637V67.6075H97.7777C96.8832 67.6075 96.158 66.8824 96.158 65.9879C96.158 65.0933 96.8832 64.3682 97.7777 64.3682H102.637V61.6403Z" fill="#FF9900"/>
<path fill-rule="evenodd" clip-rule="evenodd" d="M59.8431 35.0436L59.8431 43.2272L57.1152 43.2272L57.1152 35.0436L59.8431 35.0436Z" fill="#FF9900"/>
<path fill-rule="evenodd" clip-rule="evenodd" d="M33.5863 35.0436L33.5863 43.2272L30.8584 43.2272L30.8584 35.0436L33.5863 35.0436Z" fill="#FF9900"/>
<path fill-rule="evenodd" clip-rule="evenodd" d="M56.1112 0.867128C57.8763 -0.514511 60.497 -0.241359 61.8423 1.65997C68.1992 10.6437 71.8595 21.2581 72.3911 32.2507C72.5036 34.5771 70.6083 36.4075 68.3668 36.4075H22.5725C18.6828 36.4075 16.9875 31.4911 20.0504 29.0936L56.1112 0.867128ZM59.6156 3.23563C59.2205 2.67733 58.4002 2.53961 57.7926 3.01519L21.7318 31.2417C20.7108 32.0409 21.2759 33.6797 22.5725 33.6797H68.3668C69.1383 33.6797 69.6994 33.0656 69.6664 32.3824C69.1599 21.9088 65.6724 11.7953 59.6156 3.23563Z" fill="#FF9900"/>
<path fill-rule="evenodd" clip-rule="evenodd" d="M56.1136 3.22987C61.9996 12.9339 65.6018 23.8632 66.6327 35.184L63.9161 35.4314C62.9228 24.5242 59.4522 13.9941 53.7812 4.64456L56.1136 3.22987Z" fill="#FF9900"/>
<path opacity="0.4" d="M56.212 6.10503C60.7643 14.2247 63.7316 23.1438 64.9486 32.3824C65.156 33.957 66.6103 35.078 68.1637 34.7476C68.3387 34.7104 68.5172 34.6718 68.6983 34.632C69.8306 34.3833 70.6651 33.4175 70.7026 32.2588C71.0878 20.3708 65.1556 8.78065 60.9633 2.76422C60.1324 1.5718 58.4931 1.36025 57.3175 2.21469L56.9776 2.46173C55.83 3.29574 55.5182 4.86761 56.212 6.10503Z" fill="#FF9900"/>
<path fill-rule="evenodd" clip-rule="evenodd" d="M50.2321 28.1471C46.4657 28.1471 43.4124 31.2003 43.4124 34.9667H40.6846C40.6846 29.6938 44.9591 25.4192 50.2321 25.4192C55.5051 25.4192 59.7797 29.6938 59.7797 34.9667H57.0518C57.0518 31.2003 53.9985 28.1471 50.2321 28.1471Z" fill="#FF9900"/>
<path opacity="0.4" d="M50.2324 26.7831C45.7128 26.7831 42.0488 30.4471 42.0488 34.9667H58.416C58.416 30.4471 54.7521 26.7831 50.2324 26.7831Z" fill="#FF9900"/>
<path fill-rule="evenodd" clip-rule="evenodd" d="M51.2555 12.1208C51.2555 10.6544 50.5713 9.34857 49.4993 8.50336L51.1883 6.36125C52.8881 7.70147 53.9833 9.78364 53.9833 12.1208C53.9833 16.1697 50.7011 19.452 46.6522 19.452C43.6438 19.452 41.0617 17.6402 39.9316 15.0538L42.4313 13.9616C43.1429 15.5903 44.7667 16.7241 46.6522 16.7241C49.1945 16.7241 51.2555 14.6631 51.2555 12.1208Z" fill="#FF9900"/>
<path opacity="0.4" d="M46.6523 18.088C49.9479 18.088 52.6195 15.4164 52.6195 12.1208C52.6195 10.219 51.7299 8.52501 50.344 7.4323L41.1816 14.5077C42.1024 16.6152 44.2054 18.088 46.6523 18.088Z" fill="#FF9900"/>
<path opacity="0.4" d="M37.6169 27.9766C37.6169 29.4831 36.3956 30.7044 34.889 30.7044C33.3824 30.7044 32.1611 29.4831 32.1611 27.9766C32.1611 26.47 33.3824 25.2487 34.889 25.2487C36.3956 25.2487 37.6169 26.47 37.6169 27.9766Z" fill="#FF9900"/>
<path fill-rule="evenodd" clip-rule="evenodd" d="M34.8897 26.6126C34.1364 26.6126 33.5257 27.2233 33.5257 27.9766C33.5257 28.7298 34.1364 29.3405 34.8897 29.3405C35.6429 29.3405 36.2536 28.7298 36.2536 27.9766C36.2536 27.2233 35.6429 26.6126 34.8897 26.6126ZM30.7979 27.9766C30.7979 25.7167 32.6298 23.8848 34.8897 23.8848C37.1495 23.8848 38.9815 25.7167 38.9815 27.9766C38.9815 30.2364 37.1495 32.0684 34.8897 32.0684C32.6298 32.0684 30.7979 30.2364 30.7979 27.9766Z" fill="#FF9900"/>
</svg>
